<svg width="39" height="39" viewBox="0 0 39 39" fill="none" xmlns="http://www.w3.org/2000/svg">
<path d="M0 11.6488C0 5.21535 5.21535 0 11.6488 0H27.1767C33.6102 0 38.8255 5.21535 38.8255 11.6488V27.1767C38.8255 33.6102 33.6102 38.8255 27.1767 38.8255H11.6488C5.21535 38.8255 0 33.6102 0 27.1767V11.6488Z" fill="#00C950" fill-opacity="0.2"/>
<path d="M25.0692 26.6925V25.0748C25.0692 24.2167 24.7283 23.3938 24.1216 22.787C23.5148 22.1802 22.6919 21.8394 21.8338 21.8394H16.9806C16.1225 21.8394 15.2995 22.1802 14.6928 22.787C14.086 23.3938 13.7451 24.2167 13.7451 25.0748V26.6925" stroke="#00C950" stroke-width="1.61773" stroke-linecap="round" stroke-linejoin="round"/>
<path d="M19.4073 18.604C21.1942 18.604 22.6428 17.1554 22.6428 15.3685C22.6428 13.5816 21.1942 12.1331 19.4073 12.1331C17.6204 12.1331 16.1719 13.5816 16.1719 15.3685C16.1719 17.1554 17.6204 18.604 19.4073 18.604Z" stroke="#00C950" stroke-width="1.61773" stroke-linecap="round" stroke-linejoin="round"/>
</svg>
