<svg width="47" height="47" viewBox="0 0 47 47" fill="none" xmlns="http://www.w3.org/2000/svg">
<path d="M0 15.5746C0 6.97296 6.97298 0 15.5746 0H31.1445C39.7461 0 46.7191 6.97298 46.7191 15.5746V31.1445C46.7191 39.7461 39.7461 46.7191 31.1445 46.7191H15.5746C6.97296 46.7191 0 39.7461 0 31.1445V15.5746Z" fill="#ED1C24" fill-opacity="0.2"/>
<path d="M19.4665 33.0928C20.0041 33.0928 20.4399 32.657 20.4399 32.1194C20.4399 31.5818 20.0041 31.146 19.4665 31.146C18.9289 31.146 18.493 31.5818 18.493 32.1194C18.493 32.657 18.9289 33.0928 19.4665 33.0928Z" stroke="#ED1C24" stroke-width="1.94663" stroke-linecap="round" stroke-linejoin="round"/>
<path d="M30.1729 33.0928C30.7105 33.0928 31.1463 32.657 31.1463 32.1194C31.1463 31.5818 30.7105 31.146 30.1729 31.146C29.6353 31.146 29.1995 31.5818 29.1995 32.1194C29.1995 32.657 29.6353 33.0928 30.1729 33.0928Z" stroke="#ED1C24" stroke-width="1.94663" stroke-linecap="round" stroke-linejoin="round"/>
<path d="M13.6753 13.6753H15.6219L18.2109 25.7639C18.3059 26.2066 18.5522 26.6023 18.9075 26.883C19.2628 27.1637 19.7049 27.3118 20.1576 27.3017H29.6766C30.1196 27.301 30.5491 27.1492 30.8942 26.8713C31.2393 26.5935 31.4793 26.2063 31.5745 25.7736L33.1805 18.5419H16.6634" stroke="#ED1C24" stroke-width="1.94663" stroke-linecap="round" stroke-linejoin="round"/>
</svg>
