<svg width="47" height="47" viewBox="0 0 47 47" fill="none" xmlns="http://www.w3.org/2000/svg">
<path d="M0 15.5746C0 6.97296 6.97298 0 15.5746 0H31.1445C39.7461 0 46.7191 6.97298 46.7191 15.5746V31.1445C46.7191 39.7461 39.7461 46.7191 31.1445 46.7191H15.5746C6.97296 46.7191 0 39.7461 0 31.1445V15.5746Z" fill="#ED1C24" fill-opacity="0.2"/>
<path d="M30.1727 28.2261H32.1194C32.7034 28.2261 33.0927 27.8367 33.0927 27.2527V24.3328C33.0927 23.4568 32.4114 22.6782 31.6327 22.4835C29.8807 21.9969 27.2528 21.4129 27.2528 21.4129C27.2528 21.4129 25.9875 20.0502 25.1115 19.1742C24.6249 18.7849 24.0409 18.4929 23.3595 18.4929H16.5463C15.9624 18.4929 15.4757 18.8822 15.1837 19.3689L13.8211 22.1915C13.6922 22.5674 13.6264 22.9621 13.6264 23.3595V27.2527C13.6264 27.8367 14.0157 28.2261 14.5997 28.2261H16.5463" stroke="#ED1C24" stroke-width="1.94663" stroke-linecap="round" stroke-linejoin="round"/>
<path d="M18.4931 30.1732C19.5683 30.1732 20.44 29.3016 20.44 28.2264C20.44 27.1512 19.5683 26.2795 18.4931 26.2795C17.4179 26.2795 16.5463 27.1512 16.5463 28.2264C16.5463 29.3016 17.4179 30.1732 18.4931 30.1732Z" stroke="#ED1C24" stroke-width="1.94663" stroke-linecap="round" stroke-linejoin="round"/>
<path d="M20.4396 28.2261H26.28" stroke="#ED1C24" stroke-width="1.94663" stroke-linecap="round" stroke-linejoin="round"/>
<path d="M28.2262 30.1732C29.3014 30.1732 30.1731 29.3016 30.1731 28.2264C30.1731 27.1512 29.3014 26.2795 28.2262 26.2795C27.151 26.2795 26.2794 27.1512 26.2794 28.2264C26.2794 29.3016 27.151 30.1732 28.2262 30.1732Z" stroke="#ED1C24" stroke-width="1.94663" stroke-linecap="round" stroke-linejoin="round"/>
</svg>
