<svg width="487" height="293" viewBox="0 0 487 293" fill="none" xmlns="http://www.w3.org/2000/svg">
<path d="M63.3311 234.794H481.284" stroke="#2A2A2A" stroke-width="0.97425" stroke-dasharray="2.92 2.92"/>
<path d="M63.3311 177.313H481.284" stroke="#2A2A2A" stroke-width="0.97425" stroke-dasharray="2.92 2.92"/>
<path d="M63.3311 119.833H481.284" stroke="#2A2A2A" stroke-width="0.97425" stroke-dasharray="2.92 2.92"/>
<path d="M63.3311 62.3521H481.284" stroke="#2A2A2A" stroke-width="0.97425" stroke-dasharray="2.92 2.92"/>
<path d="M63.3311 4.87109H481.284" stroke="#2A2A2A" stroke-width="0.97425" stroke-dasharray="2.92 2.92"/>
<path d="M98.1605 4.87109V234.794" stroke="#2A2A2A" stroke-width="0.97425" stroke-dasharray="2.92 2.92"/>
<path d="M167.819 4.87109V234.794" stroke="#2A2A2A" stroke-width="0.97425" stroke-dasharray="2.92 2.92"/>
<path d="M237.478 4.87109V234.794" stroke="#2A2A2A" stroke-width="0.97425" stroke-dasharray="2.92 2.92"/>
<path d="M307.137 4.87109V234.794" stroke="#2A2A2A" stroke-width="0.97425" stroke-dasharray="2.92 2.92"/>
<path d="M376.796 4.87109V234.794" stroke="#2A2A2A" stroke-width="0.97425" stroke-dasharray="2.92 2.92"/>
<path d="M446.455 4.87109V234.794" stroke="#2A2A2A" stroke-width="0.97425" stroke-dasharray="2.92 2.92"/>
<path d="M63.3311 4.87109V234.794" stroke="#2A2A2A" stroke-width="0.97425" stroke-dasharray="2.92 2.92"/>
<path d="M481.284 4.87109V234.794" stroke="#2A2A2A" stroke-width="0.97425" stroke-dasharray="2.92 2.92"/>
<path d="M63.3311 234.794H481.284" stroke="#A0A0A0" stroke-width="0.97425"/>
<path d="M98.1605 240.64V234.794" stroke="#A0A0A0" stroke-width="0.97425"/>
<path d="M92.3283 241.695H93.3579V247.773C93.3579 248.316 93.2582 248.777 93.059 249.156C92.8597 249.535 92.5788 249.823 92.2162 250.019C91.8536 250.216 91.426 250.314 90.9333 250.314C90.4683 250.314 90.0546 250.23 89.692 250.061C89.3294 249.889 89.0443 249.646 88.8368 249.33C88.6292 249.015 88.5254 248.64 88.5254 248.205H89.5384C89.5384 248.446 89.5979 248.656 89.7169 248.836C89.8387 249.013 90.0047 249.152 90.2151 249.251C90.4254 249.351 90.6649 249.401 90.9333 249.401C91.2295 249.401 91.4813 249.338 91.6889 249.214C91.8965 249.089 92.0543 248.907 92.1622 248.666C92.2729 248.422 92.3283 248.125 92.3283 247.773V241.695ZM97.1649 250.347C96.7608 250.347 96.3941 250.271 96.0647 250.119C95.7354 249.964 95.4738 249.741 95.2801 249.45C95.0863 249.157 94.9895 248.803 94.9895 248.388C94.9895 248.022 95.0614 247.726 95.2054 247.499C95.3493 247.269 95.5416 247.09 95.7824 246.959C96.0232 246.829 96.2889 246.733 96.5796 246.669C96.8729 246.602 97.1677 246.55 97.4638 246.511C97.8513 246.461 98.1655 246.424 98.4063 246.399C98.6498 246.371 98.827 246.326 98.9377 246.262C99.0512 246.198 99.1079 246.088 99.1079 245.93V245.897C99.1079 245.487 98.9958 245.169 98.7716 244.942C98.5502 244.715 98.2139 244.601 97.7628 244.601C97.295 244.601 96.9283 244.704 96.6626 244.909C96.3969 245.113 96.2101 245.332 96.1021 245.565L95.1721 245.232C95.3382 244.845 95.5596 244.543 95.8364 244.327C96.116 244.109 96.4204 243.956 96.7498 243.871C97.0819 243.782 97.4085 243.738 97.7296 243.738C97.9344 243.738 98.1696 243.763 98.4353 243.813C98.7038 243.86 98.9626 243.958 99.2117 244.107C99.4636 244.257 99.6725 244.482 99.8386 244.784C100.005 245.086 100.088 245.49 100.088 245.996V250.198H99.1079V249.334H99.0581C98.9917 249.473 98.8809 249.621 98.7259 249.778C98.571 249.936 98.3648 250.07 98.1074 250.181C97.85 250.292 97.5358 250.347 97.1649 250.347ZM97.3144 249.467C97.7019 249.467 98.0285 249.391 98.2942 249.239C98.5626 249.086 98.7647 248.89 98.9003 248.649C99.0387 248.408 99.1079 248.155 99.1079 247.889V246.993C99.0664 247.043 98.975 247.088 98.8339 247.13C98.6955 247.168 98.535 247.203 98.3523 247.233C98.1724 247.261 97.9966 247.286 97.825 247.308C97.6562 247.328 97.5192 247.344 97.414 247.358C97.1594 247.391 96.9214 247.445 96.6999 247.52C96.4813 247.592 96.3042 247.701 96.1685 247.848C96.0357 247.992 95.9693 248.188 95.9693 248.437C95.9693 248.778 96.0952 249.035 96.3471 249.21C96.6017 249.381 96.9241 249.467 97.3144 249.467ZM102.856 246.362V250.198H101.876V243.821H102.823V244.817H102.906C103.055 244.493 103.282 244.233 103.586 244.037C103.891 243.837 104.284 243.738 104.766 243.738C105.197 243.738 105.575 243.826 105.899 244.004C106.223 244.178 106.475 244.444 106.655 244.801C106.834 245.155 106.924 245.603 106.924 246.146V250.198H105.945V246.212C105.945 245.711 105.815 245.321 105.554 245.041C105.294 244.759 104.937 244.618 104.483 244.618C104.17 244.618 103.891 244.686 103.645 244.821C103.401 244.957 103.209 245.155 103.068 245.415C102.926 245.675 102.856 245.991 102.856 246.362Z" fill="#A0A0A0"/>
<path d="M167.819 240.64V234.794" stroke="#A0A0A0" stroke-width="0.97425"/>
<path d="M158.89 250.198V241.695H163.988V242.609H159.919V245.481H163.606V246.395H159.919V250.198H158.89ZM167.824 250.331C167.21 250.331 166.68 250.195 166.234 249.924C165.791 249.65 165.449 249.268 165.209 248.778C164.971 248.285 164.852 247.712 164.852 247.059C164.852 246.406 164.971 245.83 165.209 245.332C165.449 244.831 165.784 244.441 166.213 244.161C166.645 243.879 167.149 243.738 167.724 243.738C168.057 243.738 168.385 243.793 168.708 243.904C169.032 244.015 169.327 244.194 169.593 244.444C169.858 244.69 170.07 245.017 170.228 245.423C170.386 245.83 170.465 246.331 170.465 246.926V247.341H165.549V246.494H169.468C169.468 246.135 169.396 245.814 169.252 245.531C169.111 245.249 168.909 245.026 168.646 244.863C168.386 244.7 168.079 244.618 167.724 244.618C167.334 244.618 166.997 244.715 166.712 244.909C166.429 245.1 166.212 245.349 166.06 245.656C165.907 245.963 165.831 246.292 165.831 246.644V247.209C165.831 247.69 165.914 248.098 166.08 248.433C166.249 248.765 166.483 249.019 166.782 249.193C167.081 249.365 167.428 249.45 167.824 249.45C168.082 249.45 168.314 249.414 168.522 249.343C168.732 249.268 168.913 249.157 169.065 249.01C169.218 248.861 169.335 248.675 169.418 248.454L170.365 248.72C170.265 249.041 170.098 249.323 169.863 249.567C169.627 249.808 169.337 249.996 168.991 250.131C168.645 250.264 168.256 250.331 167.824 250.331ZM172.088 250.198V241.695H173.068V244.834H173.151C173.223 244.723 173.322 244.582 173.45 244.41C173.58 244.236 173.765 244.081 174.006 243.945C174.249 243.807 174.579 243.738 174.994 243.738C175.531 243.738 176.004 243.872 176.414 244.141C176.823 244.409 177.143 244.79 177.373 245.282C177.603 245.775 177.717 246.356 177.717 247.026C177.717 247.701 177.603 248.287 177.373 248.782C177.143 249.275 176.825 249.657 176.418 249.928C176.011 250.196 175.542 250.331 175.011 250.331C174.601 250.331 174.273 250.263 174.027 250.127C173.78 249.989 173.591 249.832 173.458 249.658C173.325 249.481 173.223 249.334 173.151 249.218H173.034V250.198H172.088ZM173.051 247.009C173.051 247.491 173.122 247.916 173.263 248.284C173.404 248.649 173.61 248.936 173.881 249.143C174.153 249.348 174.485 249.45 174.878 249.45C175.287 249.45 175.629 249.343 175.903 249.127C176.18 248.908 176.388 248.615 176.526 248.246C176.667 247.876 176.738 247.463 176.738 247.009C176.738 246.561 176.669 246.157 176.53 245.797C176.394 245.434 176.188 245.148 175.912 244.938C175.638 244.725 175.293 244.618 174.878 244.618C174.479 244.618 174.144 244.719 173.873 244.921C173.602 245.12 173.397 245.4 173.259 245.76C173.12 246.117 173.051 246.533 173.051 247.009Z" fill="#A0A0A0"/>
<path d="M237.478 240.64V234.794" stroke="#A0A0A0" stroke-width="0.97425"/>
<path d="M228.122 241.695H229.351L232.24 248.753H232.34L235.23 241.695H236.459V250.198H235.495V243.738H235.412L232.755 250.198H231.825L229.168 243.738H229.085V250.198H228.122V241.695ZM240.267 250.347C239.862 250.347 239.496 250.271 239.166 250.119C238.837 249.964 238.575 249.741 238.382 249.45C238.188 249.157 238.091 248.803 238.091 248.388C238.091 248.022 238.163 247.726 238.307 247.499C238.451 247.269 238.643 247.09 238.884 246.959C239.125 246.829 239.391 246.733 239.681 246.669C239.975 246.602 240.269 246.55 240.566 246.511C240.953 246.461 241.267 246.424 241.508 246.399C241.751 246.371 241.929 246.326 242.039 246.262C242.153 246.198 242.21 246.088 242.21 245.93V245.897C242.21 245.487 242.097 245.169 241.873 244.942C241.652 244.715 241.316 244.601 240.864 244.601C240.397 244.601 240.03 244.704 239.764 244.909C239.499 245.113 239.312 245.332 239.204 245.565L238.274 245.232C238.44 244.845 238.661 244.543 238.938 244.327C239.218 244.109 239.522 243.956 239.851 243.871C240.184 243.782 240.51 243.738 240.831 243.738C241.036 243.738 241.271 243.763 241.537 243.813C241.805 243.86 242.064 243.958 242.313 244.107C242.565 244.257 242.774 244.482 242.94 244.784C243.106 245.086 243.189 245.49 243.189 245.996V250.198H242.21V249.334H242.16C242.093 249.473 241.983 249.621 241.828 249.778C241.673 249.936 241.466 250.07 241.209 250.181C240.952 250.292 240.637 250.347 240.267 250.347ZM240.416 249.467C240.804 249.467 241.13 249.391 241.396 249.239C241.664 249.086 241.866 248.89 242.002 248.649C242.14 248.408 242.21 248.155 242.21 247.889V246.993C242.168 247.043 242.077 247.088 241.936 247.13C241.797 247.168 241.637 247.203 241.454 247.233C241.274 247.261 241.098 247.286 240.927 247.308C240.758 247.328 240.621 247.344 240.516 247.358C240.261 247.391 240.023 247.445 239.802 247.52C239.583 247.592 239.406 247.701 239.27 247.848C239.137 247.992 239.071 248.188 239.071 248.437C239.071 248.778 239.197 249.035 239.449 249.21C239.703 249.381 240.026 249.467 240.416 249.467ZM244.978 250.198V243.821H245.924V244.784H245.991C246.107 244.468 246.317 244.212 246.622 244.016C246.926 243.819 247.269 243.721 247.651 243.721C247.723 243.721 247.813 243.723 247.921 243.725C248.029 243.728 248.111 243.732 248.166 243.738V244.734C248.133 244.726 248.057 244.713 247.938 244.697C247.822 244.677 247.698 244.668 247.568 244.668C247.258 244.668 246.982 244.733 246.738 244.863C246.497 244.99 246.306 245.167 246.165 245.394C246.027 245.619 245.957 245.875 245.957 246.162V250.198H244.978Z" fill="#A0A0A0"/>
<path d="M307.137 240.64V234.794" stroke="#A0A0A0" stroke-width="0.97425"/>
<path d="M299.086 250.198H298.006L301.128 241.695H302.191L305.313 250.198H304.234L301.693 243.04H301.627L299.086 250.198ZM299.484 246.876H303.835V247.79H299.484V246.876ZM306.505 252.589V243.821H307.451V244.834H307.568C307.64 244.723 307.739 244.582 307.867 244.41C307.997 244.236 308.182 244.081 308.423 243.945C308.666 243.807 308.996 243.738 309.411 243.738C309.948 243.738 310.421 243.872 310.831 244.141C311.24 244.409 311.56 244.79 311.79 245.282C312.02 245.775 312.134 246.356 312.134 247.026C312.134 247.701 312.02 248.287 311.79 248.782C311.56 249.275 311.242 249.657 310.835 249.928C310.428 250.196 309.959 250.331 309.428 250.331C309.018 250.331 308.69 250.263 308.444 250.127C308.197 249.989 308.008 249.832 307.875 249.658C307.742 249.481 307.64 249.334 307.568 249.218H307.485V252.589H306.505ZM307.468 247.009C307.468 247.491 307.539 247.916 307.68 248.284C307.821 248.649 308.027 248.936 308.298 249.143C308.57 249.348 308.902 249.45 309.295 249.45C309.704 249.45 310.046 249.343 310.32 249.127C310.597 248.908 310.804 248.615 310.943 248.246C311.084 247.876 311.155 247.463 311.155 247.009C311.155 246.561 311.085 246.157 310.947 245.797C310.811 245.434 310.605 245.148 310.328 244.938C310.054 244.725 309.71 244.618 309.295 244.618C308.896 244.618 308.561 244.719 308.29 244.921C308.019 245.12 307.814 245.4 307.676 245.76C307.537 246.117 307.468 246.533 307.468 247.009ZM313.629 250.198V243.821H314.576V244.784H314.642C314.758 244.468 314.969 244.212 315.273 244.016C315.577 243.819 315.921 243.721 316.303 243.721C316.375 243.721 316.465 243.723 316.572 243.725C316.68 243.728 316.762 243.732 316.817 243.738V244.734C316.784 244.726 316.708 244.713 316.589 244.697C316.473 244.677 316.35 244.668 316.22 244.668C315.91 244.668 315.633 244.733 315.389 244.863C315.148 244.99 314.957 245.167 314.816 245.394C314.678 245.619 314.609 245.875 314.609 246.162V250.198H313.629Z" fill="#A0A0A0"/>
<path d="M376.796 240.64V234.794" stroke="#A0A0A0" stroke-width="0.97425"/>
<path d="M366.501 241.695H367.73L370.619 248.753H370.719L373.608 241.695H374.837V250.198H373.874V243.738H373.791L371.134 250.198H370.204L367.547 243.738H367.464V250.198H366.501V241.695ZM378.645 250.347C378.241 250.347 377.875 250.271 377.545 250.119C377.216 249.964 376.954 249.741 376.761 249.45C376.567 249.157 376.47 248.803 376.47 248.388C376.47 248.022 376.542 247.726 376.686 247.499C376.83 247.269 377.022 247.09 377.263 246.959C377.504 246.829 377.769 246.733 378.06 246.669C378.353 246.602 378.648 246.55 378.944 246.511C379.332 246.461 379.646 246.424 379.887 246.399C380.13 246.371 380.307 246.326 380.418 246.262C380.532 246.198 380.588 246.088 380.588 245.93V245.897C380.588 245.487 380.476 245.169 380.252 244.942C380.031 244.715 379.694 244.601 379.243 244.601C378.775 244.601 378.409 244.704 378.143 244.909C377.877 245.113 377.69 245.332 377.583 245.565L376.653 245.232C376.819 244.845 377.04 244.543 377.317 244.327C377.596 244.109 377.901 243.956 378.23 243.871C378.562 243.782 378.889 243.738 379.21 243.738C379.415 243.738 379.65 243.763 379.916 243.813C380.184 243.86 380.443 243.958 380.692 244.107C380.944 244.257 381.153 244.482 381.319 244.784C381.485 245.086 381.568 245.49 381.568 245.996V250.198H380.588V249.334H380.539C380.472 249.473 380.361 249.621 380.206 249.778C380.051 249.936 379.845 250.07 379.588 250.181C379.33 250.292 379.016 250.347 378.645 250.347ZM378.795 249.467C379.182 249.467 379.509 249.391 379.775 249.239C380.043 249.086 380.245 248.89 380.381 248.649C380.519 248.408 380.588 248.155 380.588 247.889V246.993C380.547 247.043 380.455 247.088 380.314 247.13C380.176 247.168 380.015 247.203 379.833 247.233C379.653 247.261 379.477 247.286 379.305 247.308C379.137 247.328 379 247.344 378.894 247.358C378.64 247.391 378.402 247.445 378.18 247.52C377.962 247.592 377.785 247.701 377.649 247.848C377.516 247.992 377.45 248.188 377.45 248.437C377.45 248.778 377.576 249.035 377.827 249.21C378.082 249.381 378.405 249.467 378.795 249.467ZM383.759 252.589C383.593 252.589 383.445 252.575 383.315 252.548C383.185 252.523 383.095 252.498 383.045 252.473L383.294 251.609C383.532 251.67 383.743 251.692 383.925 251.676C384.108 251.659 384.27 251.577 384.411 251.431C384.555 251.287 384.686 251.053 384.805 250.729L384.988 250.231L382.63 243.821H383.693L385.453 248.902H385.519L387.28 243.821H388.343L385.636 251.128C385.514 251.457 385.363 251.73 385.183 251.946C385.003 252.164 384.794 252.326 384.556 252.431C384.321 252.537 384.055 252.589 383.759 252.589Z" fill="#A0A0A0"/>
<path d="M446.455 240.64V234.794" stroke="#A0A0A0" stroke-width="0.97425"/>
<path d="M440.52 241.695H441.55V247.773C441.55 248.316 441.45 248.777 441.251 249.156C441.051 249.535 440.77 249.823 440.408 250.019C440.045 250.216 439.618 250.314 439.125 250.314C438.66 250.314 438.246 250.23 437.884 250.061C437.521 249.889 437.236 249.646 437.028 249.33C436.821 249.015 436.717 248.64 436.717 248.205H437.73C437.73 248.446 437.79 248.656 437.909 248.836C438.03 249.013 438.196 249.152 438.407 249.251C438.617 249.351 438.857 249.401 439.125 249.401C439.421 249.401 439.673 249.338 439.881 249.214C440.088 249.089 440.246 248.907 440.354 248.666C440.465 248.422 440.52 248.125 440.52 247.773V241.695ZM447.499 247.591V243.821H448.479V250.198H447.499V249.118H447.432C447.283 249.442 447.05 249.718 446.735 249.945C446.419 250.169 446.021 250.281 445.539 250.281C445.141 250.281 444.786 250.194 444.476 250.019C444.166 249.842 443.923 249.576 443.746 249.222C443.569 248.865 443.48 248.415 443.48 247.873V243.821H444.46V247.806C444.46 248.271 444.59 248.642 444.85 248.919C445.113 249.196 445.448 249.334 445.855 249.334C446.098 249.334 446.346 249.272 446.598 249.147C446.853 249.023 447.066 248.832 447.237 248.574C447.412 248.317 447.499 247.989 447.499 247.591ZM451.253 246.362V250.198H450.273V243.821H451.22V244.817H451.303C451.452 244.493 451.679 244.233 451.984 244.037C452.288 243.837 452.681 243.738 453.163 243.738C453.594 243.738 453.972 243.826 454.296 244.004C454.62 244.178 454.872 244.444 455.052 244.801C455.232 245.155 455.322 245.603 455.322 246.146V250.198H454.342V246.212C454.342 245.711 454.212 245.321 453.952 245.041C453.691 244.759 453.334 244.618 452.88 244.618C452.568 244.618 452.288 244.686 452.042 244.821C451.798 244.957 451.606 245.155 451.465 245.415C451.324 245.675 451.253 245.991 451.253 246.362Z" fill="#A0A0A0"/>
<path d="M63.3309 4.87109V234.794" stroke="#A0A0A0" stroke-width="0.97425"/>
<path d="M57.4856 234.794H63.3313" stroke="#A0A0A0" stroke-width="0.97425"/>
<path d="M52.0896 238.37C51.4641 238.37 50.9313 238.2 50.4912 237.859C50.0512 237.516 49.7149 237.019 49.4824 236.369C49.2499 235.716 49.1336 234.927 49.1336 234.002C49.1336 233.083 49.2499 232.299 49.4824 231.648C49.7176 230.995 50.0553 230.497 50.4954 230.154C50.9382 229.808 51.4696 229.635 52.0896 229.635C52.7096 229.635 53.2396 229.808 53.6797 230.154C54.1225 230.497 54.4602 230.995 54.6927 231.648C54.9279 232.299 55.0456 233.083 55.0456 234.002C55.0456 234.927 54.9293 235.716 54.6968 236.369C54.4643 237.019 54.1281 237.516 53.688 237.859C53.2479 238.2 52.7151 238.37 52.0896 238.37ZM52.0896 237.457C52.7096 237.457 53.1912 237.158 53.5344 236.56C53.8776 235.962 54.0492 235.109 54.0492 234.002C54.0492 233.266 53.9703 232.639 53.8125 232.122C53.6575 231.604 53.4333 231.21 53.14 230.938C52.8494 230.667 52.4992 230.532 52.0896 230.532C51.4752 230.532 50.995 230.835 50.649 231.441C50.303 232.044 50.13 232.898 50.13 234.002C50.13 234.739 50.2075 235.364 50.3625 235.879C50.5175 236.394 50.7403 236.785 51.0309 237.054C51.3243 237.322 51.6772 237.457 52.0896 237.457Z" fill="#A0A0A0"/>
<path d="M57.4855 177.313H63.3311" stroke="#A0A0A0" stroke-width="0.97425"/>
<path d="M21.7214 180.889C21.3727 180.884 21.024 180.817 20.6752 180.69C20.3265 180.563 20.0082 180.348 19.7203 180.046C19.4325 179.742 19.2014 179.331 19.027 178.813C18.8527 178.293 18.7655 177.64 18.7655 176.854C18.7655 176.101 18.836 175.434 18.9772 174.853C19.1184 174.269 19.3232 173.777 19.5916 173.379C19.8601 172.978 20.1839 172.673 20.5631 172.466C20.9451 172.258 21.3755 172.154 21.8543 172.154C22.3303 172.154 22.7538 172.25 23.1247 172.441C23.4983 172.629 23.8028 172.892 24.038 173.229C24.2733 173.567 24.4255 173.956 24.4947 174.396H23.4817C23.3876 174.014 23.2049 173.697 22.9337 173.445C22.6625 173.193 22.3027 173.068 21.8543 173.068C21.1956 173.068 20.6766 173.354 20.2974 173.927C19.921 174.5 19.7314 175.304 19.7286 176.339H19.7951C19.9501 176.104 20.1341 175.903 20.3472 175.737C20.5631 175.568 20.8012 175.438 21.0613 175.347C21.3215 175.255 21.5969 175.21 21.8875 175.21C22.3746 175.21 22.8202 175.332 23.2243 175.575C23.6284 175.816 23.9522 176.149 24.1958 176.576C24.4394 176.999 24.5611 177.485 24.5611 178.033C24.5611 178.559 24.4435 179.04 24.2083 179.478C23.973 179.912 23.6423 180.258 23.216 180.516C22.7926 180.77 22.2944 180.895 21.7214 180.889ZM21.7214 179.976C22.0702 179.976 22.3829 179.889 22.6597 179.714C22.9392 179.54 23.1593 179.306 23.3198 179.013C23.4831 178.719 23.5648 178.393 23.5648 178.033C23.5648 177.681 23.4859 177.362 23.3281 177.074C23.1731 176.783 22.9586 176.552 22.6846 176.381C22.4134 176.209 22.1034 176.123 21.7546 176.123C21.4917 176.123 21.2468 176.176 21.0198 176.281C20.7928 176.383 20.5936 176.524 20.422 176.704C20.2531 176.884 20.1203 177.09 20.0234 177.323C19.9265 177.553 19.8781 177.795 19.8781 178.049C19.8781 178.387 19.957 178.703 20.1147 178.996C20.2753 179.289 20.4939 179.526 20.7707 179.706C21.0503 179.886 21.3672 179.976 21.7214 179.976ZM28.9671 180.889C28.3416 180.889 27.8088 180.719 27.3687 180.379C26.9286 180.035 26.5923 179.539 26.3598 178.888C26.1274 178.235 26.0111 177.446 26.0111 176.522C26.0111 175.603 26.1274 174.818 26.3598 174.168C26.5951 173.515 26.9328 173.016 27.3728 172.673C27.8157 172.327 28.3471 172.154 28.9671 172.154C29.587 172.154 30.1171 172.327 30.5571 172.673C31 173.016 31.3377 173.515 31.5701 174.168C31.8054 174.818 31.923 175.603 31.923 176.522C31.923 177.446 31.8068 178.235 31.5743 178.888C31.3418 179.539 31.0055 180.035 30.5654 180.379C30.1254 180.719 29.5926 180.889 28.9671 180.889ZM28.9671 179.976C29.587 179.976 30.0686 179.677 30.4118 179.079C30.755 178.481 30.9266 177.629 30.9266 176.522C30.9266 175.785 30.8478 175.159 30.69 174.641C30.535 174.123 30.3108 173.729 30.0174 173.458C29.7268 173.187 29.3767 173.051 28.9671 173.051C28.3526 173.051 27.8724 173.354 27.5265 173.96C27.1805 174.563 27.0075 175.417 27.0075 176.522C27.0075 177.258 27.085 177.883 27.24 178.398C27.395 178.913 27.6178 179.305 27.9084 179.573C28.2018 179.842 28.5547 179.976 28.9671 179.976ZM36.2739 180.889C35.6484 180.889 35.1156 180.719 34.6756 180.379C34.2355 180.035 33.8992 179.539 33.6667 178.888C33.4342 178.235 33.318 177.446 33.318 176.522C33.318 175.603 33.4342 174.818 33.6667 174.168C33.902 173.515 34.2396 173.016 34.6797 172.673C35.1226 172.327 35.654 172.154 36.2739 172.154C36.8939 172.154 37.4239 172.327 37.864 172.673C38.3069 173.016 38.6445 173.515 38.877 174.168C39.1123 174.818 39.2299 175.603 39.2299 176.522C39.2299 177.446 39.1137 178.235 38.8812 178.888C38.6487 179.539 38.3124 180.035 37.8723 180.379C37.4323 180.719 36.8995 180.889 36.2739 180.889ZM36.2739 179.976C36.8939 179.976 37.3755 179.677 37.7187 179.079C38.0619 178.481 38.2335 177.629 38.2335 176.522C38.2335 175.785 38.1546 175.159 37.9969 174.641C37.8419 174.123 37.6177 173.729 37.3243 173.458C37.0337 173.187 36.6836 173.051 36.2739 173.051C35.6595 173.051 35.1793 173.354 34.8333 173.96C34.4874 174.563 34.3144 175.417 34.3144 176.522C34.3144 177.258 34.3919 177.883 34.5469 178.398C34.7019 178.913 34.9247 179.305 35.2153 179.573C35.5087 179.842 35.8616 179.976 36.2739 179.976ZM43.5808 180.889C42.9553 180.889 42.4225 180.719 41.9824 180.379C41.5424 180.035 41.2061 179.539 40.9736 178.888C40.7411 178.235 40.6249 177.446 40.6249 176.522C40.6249 175.603 40.7411 174.818 40.9736 174.168C41.2089 173.515 41.5465 173.016 41.9866 172.673C42.4294 172.327 42.9608 172.154 43.5808 172.154C44.2008 172.154 44.7308 172.327 45.1709 172.673C45.6137 173.016 45.9514 173.515 46.1839 174.168C46.4192 174.818 46.5368 175.603 46.5368 176.522C46.5368 177.446 46.4205 178.235 46.188 178.888C45.9556 179.539 45.6193 180.035 45.1792 180.379C44.7391 180.719 44.2063 180.889 43.5808 180.889ZM43.5808 179.976C44.2008 179.976 44.6824 179.677 45.0256 179.079C45.3688 178.481 45.5404 177.629 45.5404 176.522C45.5404 175.785 45.4615 175.159 45.3038 174.641C45.1488 174.123 44.9246 173.729 44.6312 173.458C44.3406 173.187 43.9905 173.051 43.5808 173.051C42.9664 173.051 42.4862 173.354 42.1402 173.96C41.7942 174.563 41.6213 175.417 41.6213 176.522C41.6213 177.258 41.6987 177.883 41.8537 178.398C42.0087 178.913 42.2315 179.305 42.5222 179.573C42.8155 179.842 43.1684 179.976 43.5808 179.976ZM50.8877 180.889C50.2622 180.889 49.7294 180.719 49.2893 180.379C48.8492 180.035 48.513 179.539 48.2805 178.888C48.048 178.235 47.9317 177.446 47.9317 176.522C47.9317 175.603 48.048 174.818 48.2805 174.168C48.5157 173.515 48.8534 173.016 49.2935 172.673C49.7363 172.327 50.2677 172.154 50.8877 172.154C51.5077 172.154 52.0377 172.327 52.4778 172.673C52.9206 173.016 53.2583 173.515 53.4908 174.168C53.726 174.818 53.8437 175.603 53.8437 176.522C53.8437 177.446 53.7274 178.235 53.4949 178.888C53.2624 179.539 52.9262 180.035 52.4861 180.379C52.046 180.719 51.5132 180.889 50.8877 180.889ZM50.8877 179.976C51.5077 179.976 51.9893 179.677 52.3325 179.079C52.6757 178.481 52.8473 177.629 52.8473 176.522C52.8473 175.785 52.7684 175.159 52.6106 174.641C52.4556 174.123 52.2314 173.729 51.9381 173.458C51.6474 173.187 51.2973 173.051 50.8877 173.051C50.2733 173.051 49.7931 173.354 49.4471 173.96C49.1011 174.563 48.9281 175.417 48.9281 176.522C48.9281 177.258 49.0056 177.883 49.1606 178.398C49.3156 178.913 49.5384 179.305 49.829 179.573C50.1224 179.842 50.4753 179.976 50.8877 179.976Z" fill="#A0A0A0"/>
<path d="M57.4856 119.833H63.3313" stroke="#A0A0A0" stroke-width="0.97425"/>
<path d="M16.7988 114.789V123.292H15.7692V115.869H15.7194L13.6436 117.247V116.201L15.7692 114.789H16.7988ZM19.2441 123.292V122.545L22.0507 119.472C22.38 119.113 22.6513 118.8 22.8644 118.534C23.0775 118.266 23.2353 118.014 23.3377 117.779C23.4428 117.541 23.4954 117.291 23.4954 117.031C23.4954 116.732 23.4235 116.474 23.2795 116.255C23.1384 116.036 22.9446 115.867 22.6983 115.748C22.452 115.629 22.1752 115.57 21.868 115.57C21.5414 115.57 21.2563 115.638 21.0127 115.773C20.7719 115.906 20.5851 116.093 20.4523 116.334C20.3222 116.575 20.2571 116.857 20.2571 117.181H19.2774C19.2774 116.683 19.3922 116.245 19.6219 115.869C19.8517 115.492 20.1644 115.199 20.5602 114.989C20.9588 114.778 21.4058 114.673 21.9012 114.673C22.3994 114.673 22.8408 114.778 23.2256 114.989C23.6103 115.199 23.912 115.483 24.1306 115.84C24.3493 116.197 24.4586 116.594 24.4586 117.031C24.4586 117.344 24.4019 117.65 24.2884 117.949C24.1777 118.245 23.9839 118.576 23.7072 118.941C23.4331 119.304 23.0526 119.746 22.5655 120.27L20.6557 122.312V122.379H24.6081V123.292H19.2441ZM29.096 123.408C28.4705 123.408 27.9377 123.238 27.4976 122.898C27.0575 122.554 26.7212 122.058 26.4887 121.407C26.2563 120.754 26.14 119.965 26.14 119.041C26.14 118.122 26.2563 117.337 26.4887 116.687C26.724 116.034 27.0617 115.535 27.5017 115.192C27.9446 114.846 28.476 114.673 29.096 114.673C29.716 114.673 30.246 114.846 30.6861 115.192C31.1289 115.535 31.4666 116.034 31.6991 116.687C31.9343 117.337 32.0519 118.122 32.0519 119.041C32.0519 119.965 31.9357 120.754 31.7032 121.407C31.4707 122.058 31.1344 122.554 30.6944 122.898C30.2543 123.238 29.7215 123.408 29.096 123.408ZM29.096 122.495C29.716 122.495 30.1975 122.196 30.5407 121.598C30.8839 121 31.0555 120.148 31.0555 119.041C31.0555 118.304 30.9767 117.678 30.8189 117.16C30.6639 116.642 30.4397 116.248 30.1463 115.977C29.8557 115.706 29.5056 115.57 29.096 115.57C28.4815 115.57 28.0013 115.873 27.6554 116.479C27.3094 117.083 27.1364 117.936 27.1364 119.041C27.1364 119.777 27.2139 120.402 27.3689 120.917C27.5239 121.432 27.7467 121.824 28.0373 122.092C28.3307 122.361 28.6836 122.495 29.096 122.495ZM36.4029 123.408C35.7773 123.408 35.2445 123.238 34.8045 122.898C34.3644 122.554 34.0281 122.058 33.7956 121.407C33.5631 120.754 33.4469 119.965 33.4469 119.041C33.4469 118.122 33.5631 117.337 33.7956 116.687C34.0309 116.034 34.3686 115.535 34.8086 115.192C35.2515 114.846 35.7829 114.673 36.4029 114.673C37.0228 114.673 37.5529 114.846 37.9929 115.192C38.4358 115.535 38.7734 116.034 39.0059 116.687C39.2412 117.337 39.3588 118.122 39.3588 119.041C39.3588 119.965 39.2426 120.754 39.0101 121.407C38.7776 122.058 38.4413 122.554 38.0012 122.898C37.5612 123.238 37.0284 123.408 36.4029 123.408ZM36.4029 122.495C37.0228 122.495 37.5044 122.196 37.8476 121.598C38.1908 121 38.3624 120.148 38.3624 119.041C38.3624 118.304 38.2835 117.678 38.1258 117.16C37.9708 116.642 37.7466 116.248 37.4532 115.977C37.1626 115.706 36.8125 115.57 36.4029 115.57C35.7884 115.57 35.3082 115.873 34.9622 116.479C34.6163 117.083 34.4433 117.936 34.4433 119.041C34.4433 119.777 34.5208 120.402 34.6758 120.917C34.8308 121.432 35.0536 121.824 35.3442 122.092C35.6376 122.361 35.9905 122.495 36.4029 122.495ZM43.7097 123.408C43.0842 123.408 42.5514 123.238 42.1113 122.898C41.6713 122.554 41.335 122.058 41.1025 121.407C40.87 120.754 40.7538 119.965 40.7538 119.041C40.7538 118.122 40.87 117.337 41.1025 116.687C41.3378 116.034 41.6754 115.535 42.1155 115.192C42.5583 114.846 43.0898 114.673 43.7097 114.673C44.3297 114.673 44.8597 114.846 45.2998 115.192C45.7426 115.535 46.0803 116.034 46.3128 116.687C46.5481 117.337 46.6657 118.122 46.6657 119.041C46.6657 119.965 46.5494 120.754 46.317 121.407C46.0845 122.058 45.7482 122.554 45.3081 122.898C44.868 123.238 44.3352 123.408 43.7097 123.408ZM43.7097 122.495C44.3297 122.495 44.8113 122.196 45.1545 121.598C45.4977 121 45.6693 120.148 45.6693 119.041C45.6693 118.304 45.5904 117.678 45.4327 117.16C45.2777 116.642 45.0535 116.248 44.7601 115.977C44.4695 115.706 44.1194 115.57 43.7097 115.57C43.0953 115.57 42.6151 115.873 42.2691 116.479C41.9231 117.083 41.7502 117.936 41.7502 119.041C41.7502 119.777 41.8277 120.402 41.9826 120.917C42.1376 121.432 42.3604 121.824 42.6511 122.092C42.9444 122.361 43.2973 122.495 43.7097 122.495ZM51.0166 123.408C50.3911 123.408 49.8583 123.238 49.4182 122.898C48.9782 122.554 48.6419 122.058 48.4094 121.407C48.1769 120.754 48.0606 119.965 48.0606 119.041C48.0606 118.122 48.1769 117.337 48.4094 116.687C48.6446 116.034 48.9823 115.535 49.4224 115.192C49.8652 114.846 50.3966 114.673 51.0166 114.673C51.6366 114.673 52.1666 114.846 52.6067 115.192C53.0495 115.535 53.3872 116.034 53.6197 116.687C53.8549 117.337 53.9726 118.122 53.9726 119.041C53.9726 119.965 53.8563 120.754 53.6238 121.407C53.3913 122.058 53.0551 122.554 52.615 122.898C52.1749 123.238 51.6421 123.408 51.0166 123.408ZM51.0166 122.495C51.6366 122.495 52.1182 122.196 52.4614 121.598C52.8046 121 52.9762 120.148 52.9762 119.041C52.9762 118.304 52.8973 117.678 52.7395 117.16C52.5845 116.642 52.3604 116.248 52.067 115.977C51.7764 115.706 51.4262 115.57 51.0166 115.57C50.4022 115.57 49.922 115.873 49.576 116.479C49.23 117.083 49.057 117.936 49.057 119.041C49.057 119.777 49.1345 120.402 49.2895 120.917C49.4445 121.432 49.6673 121.824 49.9579 122.092C50.2513 122.361 50.6042 122.495 51.0166 122.495Z" fill="#A0A0A0"/>
<path d="M57.4856 62.3521H63.3313" stroke="#A0A0A0" stroke-width="0.97425"/>
<path d="M16.6733 57.3087V65.8113H15.6436V58.3882H15.5938L13.518 59.7665V58.7203L15.6436 57.3087H16.6733ZM21.842 65.9275C21.2719 65.9275 20.7681 65.8265 20.3308 65.6245C19.8963 65.4196 19.5573 65.1387 19.3137 64.7817C19.0701 64.4219 18.9497 64.0122 18.9525 63.5528C18.9497 63.193 19.0203 62.8609 19.1642 62.5564C19.3082 62.2492 19.5047 61.9932 19.7538 61.7883C20.0056 61.5808 20.2866 61.4493 20.5965 61.3939V61.3441C20.1897 61.2389 19.8659 61.0106 19.6251 60.6591C19.3843 60.3048 19.2653 59.9021 19.268 59.451C19.2653 59.0192 19.3746 58.6331 19.596 58.2927C19.8174 57.9522 20.1219 57.6838 20.5094 57.4873C20.8996 57.2907 21.3438 57.1925 21.842 57.1925C22.3347 57.1925 22.7748 57.2907 23.1623 57.4873C23.5497 57.6838 23.8542 57.9522 24.0756 58.2927C24.2998 58.6331 24.4133 59.0192 24.416 59.451C24.4133 59.9021 24.2901 60.3048 24.0466 60.6591C23.8058 61.0106 23.4861 61.2389 23.0875 61.3441V61.3939C23.3947 61.4493 23.6715 61.5808 23.9179 61.7883C24.1642 61.9932 24.3607 62.2492 24.5074 62.5564C24.6541 62.8609 24.7288 63.193 24.7316 63.5528C24.7288 64.0122 24.6043 64.4219 24.3579 64.7817C24.1144 65.1387 23.7753 65.4196 23.3408 65.6245C22.909 65.8265 22.4094 65.9275 21.842 65.9275ZM21.842 65.0142C22.2268 65.0142 22.5589 64.9519 22.8384 64.8273C23.118 64.7028 23.3339 64.527 23.4861 64.3001C23.6383 64.0731 23.7158 63.8074 23.7186 63.503C23.7158 63.1819 23.6328 62.8982 23.4695 62.6519C23.3062 62.4056 23.0834 62.2118 22.8011 62.0707C22.5215 61.9295 22.2018 61.8589 21.842 61.8589C21.4795 61.8589 21.1556 61.9295 20.8706 62.0707C20.5882 62.2118 20.3654 62.4056 20.2021 62.6519C20.0416 62.8982 19.9627 63.1819 19.9655 63.503C19.9627 63.8074 20.0361 64.0731 20.1855 64.3001C20.3378 64.527 20.555 64.7028 20.8373 64.8273C21.1197 64.9519 21.4546 65.0142 21.842 65.0142ZM21.842 60.9788C22.1465 60.9788 22.4163 60.9179 22.6516 60.7961C22.8896 60.6743 23.0765 60.5041 23.2121 60.2855C23.3477 60.0668 23.4169 59.8108 23.4197 59.5174C23.4169 59.2296 23.3491 58.9791 23.2162 58.766C23.0834 58.5501 22.8993 58.384 22.6641 58.2678C22.4288 58.1487 22.1548 58.0892 21.842 58.0892C21.5237 58.0892 21.2456 58.1487 21.0076 58.2678C20.7695 58.384 20.5855 58.5501 20.4554 58.766C20.3253 58.9791 20.2616 59.2296 20.2644 59.5174C20.2616 59.8108 20.3267 60.0668 20.4595 60.2855C20.5952 60.5041 20.782 60.6743 21.02 60.7961C21.258 60.9179 21.532 60.9788 21.842 60.9788ZM29.096 65.9275C28.4705 65.9275 27.9377 65.7573 27.4976 65.4169C27.0575 65.0737 26.7212 64.5769 26.4888 63.9264C26.2563 63.2732 26.14 62.4844 26.14 61.56C26.14 60.6411 26.2563 59.8565 26.4888 59.206C26.724 58.5528 27.0617 58.0546 27.5018 57.7114C27.9446 57.3655 28.476 57.1925 29.096 57.1925C29.716 57.1925 30.246 57.3655 30.6861 57.7114C31.1289 58.0546 31.4666 58.5528 31.6991 59.206C31.9343 59.8565 32.0519 60.6411 32.0519 61.56C32.0519 62.4844 31.9357 63.2732 31.7032 63.9264C31.4707 64.5769 31.1344 65.0737 30.6944 65.4169C30.2543 65.7573 29.7215 65.9275 29.096 65.9275ZM29.096 65.0142C29.716 65.0142 30.1975 64.7152 30.5407 64.1174C30.8839 63.5196 31.0556 62.6671 31.0556 61.56C31.0556 60.8238 30.9767 60.1969 30.8189 59.6793C30.6639 59.1617 30.4397 58.7673 30.1463 58.4961C29.8557 58.2249 29.5056 58.0892 29.096 58.0892C28.4815 58.0892 28.0013 58.3923 27.6554 58.9984C27.3094 59.6018 27.1364 60.4557 27.1364 61.56C27.1364 62.2962 27.2139 62.9217 27.3689 63.4365C27.5239 63.9513 27.7467 64.343 28.0373 64.6115C28.3307 64.8799 28.6836 65.0142 29.096 65.0142ZM36.4029 65.9275C35.7773 65.9275 35.2445 65.7573 34.8045 65.4169C34.3644 65.0737 34.0281 64.5769 33.7956 63.9264C33.5631 63.2732 33.4469 62.4844 33.4469 61.56C33.4469 60.6411 33.5631 59.8565 33.7956 59.206C34.0309 58.5528 34.3686 58.0546 34.8086 57.7114C35.2515 57.3655 35.7829 57.1925 36.4029 57.1925C37.0228 57.1925 37.5529 57.3655 37.9929 57.7114C38.4358 58.0546 38.7734 58.5528 39.0059 59.206C39.2412 59.8565 39.3588 60.6411 39.3588 61.56C39.3588 62.4844 39.2426 63.2732 39.0101 63.9264C38.7776 64.5769 38.4413 65.0737 38.0012 65.4169C37.5612 65.7573 37.0284 65.9275 36.4029 65.9275ZM36.4029 65.0142C37.0228 65.0142 37.5044 64.7152 37.8476 64.1174C38.1908 63.5196 38.3624 62.6671 38.3624 61.56C38.3624 60.8238 38.2835 60.1969 38.1258 59.6793C37.9708 59.1617 37.7466 58.7673 37.4532 58.4961C37.1626 58.2249 36.8125 58.0892 36.4029 58.0892C35.7884 58.0892 35.3082 58.3923 34.9622 58.9984C34.6163 59.6018 34.4433 60.4557 34.4433 61.56C34.4433 62.2962 34.5208 62.9217 34.6758 63.4365C34.8308 63.9513 35.0536 64.343 35.3442 64.6115C35.6376 64.8799 35.9905 65.0142 36.4029 65.0142ZM43.7097 65.9275C43.0842 65.9275 42.5514 65.7573 42.1114 65.4169C41.6713 65.0737 41.335 64.5769 41.1025 63.9264C40.87 63.2732 40.7538 62.4844 40.7538 61.56C40.7538 60.6411 40.87 59.8565 41.1025 59.206C41.3378 58.5528 41.6754 58.0546 42.1155 57.7114C42.5583 57.3655 43.0898 57.1925 43.7097 57.1925C44.3297 57.1925 44.8597 57.3655 45.2998 57.7114C45.7426 58.0546 46.0803 58.5528 46.3128 59.206C46.5481 59.8565 46.6657 60.6411 46.6657 61.56C46.6657 62.4844 46.5494 63.2732 46.317 63.9264C46.0845 64.5769 45.7482 65.0737 45.3081 65.4169C44.868 65.7573 44.3352 65.9275 43.7097 65.9275ZM43.7097 65.0142C44.3297 65.0142 44.8113 64.7152 45.1545 64.1174C45.4977 63.5196 45.6693 62.6671 45.6693 61.56C45.6693 60.8238 45.5904 60.1969 45.4327 59.6793C45.2777 59.1617 45.0535 58.7673 44.7601 58.4961C44.4695 58.2249 44.1194 58.0892 43.7097 58.0892C43.0953 58.0892 42.6151 58.3923 42.2691 58.9984C41.9231 59.6018 41.7502 60.4557 41.7502 61.56C41.7502 62.2962 41.8277 62.9217 41.9827 63.4365C42.1376 63.9513 42.3605 64.343 42.6511 64.6115C42.9444 64.8799 43.2973 65.0142 43.7097 65.0142ZM51.0166 65.9275C50.3911 65.9275 49.8583 65.7573 49.4182 65.4169C48.9782 65.0737 48.6419 64.5769 48.4094 63.9264C48.1769 63.2732 48.0606 62.4844 48.0606 61.56C48.0606 60.6411 48.1769 59.8565 48.4094 59.206C48.6446 58.5528 48.9823 58.0546 49.4224 57.7114C49.8652 57.3655 50.3966 57.1925 51.0166 57.1925C51.6366 57.1925 52.1666 57.3655 52.6067 57.7114C53.0495 58.0546 53.3872 58.5528 53.6197 59.206C53.8549 59.8565 53.9726 60.6411 53.9726 61.56C53.9726 62.4844 53.8563 63.2732 53.6238 63.9264C53.3913 64.5769 53.0551 65.0737 52.615 65.4169C52.1749 65.7573 51.6421 65.9275 51.0166 65.9275ZM51.0166 65.0142C51.6366 65.0142 52.1182 64.7152 52.4614 64.1174C52.8046 63.5196 52.9762 62.6671 52.9762 61.56C52.9762 60.8238 52.8973 60.1969 52.7395 59.6793C52.5845 59.1617 52.3604 58.7673 52.067 58.4961C51.7764 58.2249 51.4262 58.0892 51.0166 58.0892C50.4022 58.0892 49.922 58.3923 49.576 58.9984C49.23 59.6018 49.057 60.4557 49.057 61.56C49.057 62.2962 49.1345 62.9217 49.2895 63.4365C49.4445 63.9513 49.6673 64.343 49.9579 64.6115C50.2513 64.8799 50.6042 65.0142 51.0166 65.0142Z" fill="#A0A0A0"/>
<path d="M57.4856 4.87109H63.3313" stroke="#A0A0A0" stroke-width="0.97425"/>
<path d="M11.9772 15.1501V14.4029L14.7838 11.3306C15.1131 10.9708 15.3844 10.6581 15.5975 10.3924C15.8106 10.1239 15.9684 9.87204 16.0708 9.63678C16.1759 9.39875 16.2285 9.14965 16.2285 8.88948C16.2285 8.59056 16.1566 8.33178 16.0126 8.11313C15.8715 7.89447 15.6777 7.72564 15.4314 7.60663C15.1851 7.48761 14.9083 7.42811 14.6011 7.42811C14.2745 7.42811 13.9894 7.49592 13.7458 7.63154C13.505 7.76439 13.3182 7.95121 13.1854 8.19201C13.0553 8.4328 12.9902 8.71511 12.9902 9.03894H12.0105C12.0105 8.54074 12.1253 8.10344 12.355 7.72702C12.5848 7.35061 12.8975 7.05723 13.2933 6.84688C13.6919 6.63653 14.1389 6.53135 14.6343 6.53135C15.1325 6.53135 15.5739 6.63653 15.9587 6.84688C16.3434 7.05723 16.6451 7.34092 16.8637 7.69796C17.0824 8.055 17.1917 8.45218 17.1917 8.88948C17.1917 9.20224 17.135 9.50808 17.0215 9.80699C16.9108 10.1031 16.717 10.4339 16.4403 10.7992C16.1662 11.1618 15.7857 11.6047 15.2986 12.1278L13.3888 14.1704V14.2368H17.3412V15.1501H11.9772ZM18.6738 13.4065V12.5595L22.4103 6.6476H23.0247V7.95952H22.6096L19.7865 12.4267V12.4931H24.8183V13.4065H18.6738ZM22.676 15.1501V13.1491V12.7547V6.6476H23.6558V15.1501H22.676ZM29.1474 15.2664C28.5219 15.2664 27.9891 15.0962 27.549 14.7557C27.1089 14.4125 26.7726 13.9157 26.5401 13.2653C26.3076 12.6121 26.1914 11.8233 26.1914 10.8989C26.1914 9.97998 26.3076 9.19532 26.5401 8.5449C26.7754 7.89171 27.1131 7.39351 27.5531 7.05031C27.996 6.70434 28.5274 6.53135 29.1474 6.53135C29.7673 6.53135 30.2974 6.70434 30.7374 7.05031C31.1803 7.39351 31.518 7.89171 31.7504 8.5449C31.9857 9.19532 32.1033 9.97998 32.1033 10.8989C32.1033 11.8233 31.9871 12.6121 31.7546 13.2653C31.5221 13.9157 31.1858 14.4125 30.7457 14.7557C30.3057 15.0962 29.7729 15.2664 29.1474 15.2664ZM29.1474 14.353C29.7673 14.353 30.2489 14.0541 30.5921 13.4563C30.9353 12.8584 31.1069 12.006 31.1069 10.8989C31.1069 10.1626 31.0281 9.53575 30.8703 9.01818C30.7153 8.50061 30.4911 8.10621 30.1977 7.83497C29.9071 7.56373 29.557 7.42811 29.1474 7.42811C28.5329 7.42811 28.0527 7.73118 27.7068 8.33731C27.3608 8.94069 27.1878 9.79454 27.1878 10.8989C27.1878 11.6351 27.2653 12.2606 27.4203 12.7754C27.5753 13.2902 27.7981 13.6819 28.0887 13.9503C28.3821 14.2188 28.735 14.353 29.1474 14.353ZM36.4542 15.2664C35.8287 15.2664 35.2959 15.0962 34.8559 14.7557C34.4158 14.4125 34.0795 13.9157 33.847 13.2653C33.6145 12.6121 33.4983 11.8233 33.4983 10.8989C33.4983 9.97998 33.6145 9.19532 33.847 8.5449C34.0823 7.89171 34.4199 7.39351 34.86 7.05031C35.3029 6.70434 35.8343 6.53135 36.4542 6.53135C37.0742 6.53135 37.6042 6.70434 38.0443 7.05031C38.4872 7.39351 38.8248 7.89171 39.0573 8.5449C39.2926 9.19532 39.4102 9.97998 39.4102 10.8989C39.4102 11.8233 39.294 12.6121 39.0615 13.2653C38.829 13.9157 38.4927 14.4125 38.0526 14.7557C37.6125 15.0962 37.0798 15.2664 36.4542 15.2664ZM36.4542 14.353C37.0742 14.353 37.5558 14.0541 37.899 13.4563C38.2422 12.8584 38.4138 12.006 38.4138 10.8989C38.4138 10.1626 38.3349 9.53575 38.1772 9.01818C38.0222 8.50061 37.798 8.10621 37.5046 7.83497C37.214 7.56373 36.8639 7.42811 36.4542 7.42811C35.8398 7.42811 35.3596 7.73118 35.0136 8.33731C34.6677 8.94069 34.4947 9.79454 34.4947 10.8989C34.4947 11.6351 34.5722 12.2606 34.7272 12.7754C34.8822 13.2902 35.105 13.6819 35.3956 13.9503C35.689 14.2188 36.0418 14.353 36.4542 14.353ZM43.7611 15.2664C43.1356 15.2664 42.6028 15.0962 42.1627 14.7557C41.7227 14.4125 41.3864 13.9157 41.1539 13.2653C40.9214 12.6121 40.8052 11.8233 40.8052 10.8989C40.8052 9.97998 40.9214 9.19532 41.1539 8.5449C41.3892 7.89171 41.7268 7.39351 42.1669 7.05031C42.6097 6.70434 43.1411 6.53135 43.7611 6.53135C44.3811 6.53135 44.9111 6.70434 45.3512 7.05031C45.794 7.39351 46.1317 7.89171 46.3642 8.5449C46.5995 9.19532 46.7171 9.97998 46.7171 10.8989C46.7171 11.8233 46.6008 12.6121 46.3683 13.2653C46.1359 13.9157 45.7996 14.4125 45.3595 14.7557C44.9194 15.0962 44.3866 15.2664 43.7611 15.2664ZM43.7611 14.353C44.3811 14.353 44.8627 14.0541 45.2059 13.4563C45.5491 12.8584 45.7207 12.006 45.7207 10.8989C45.7207 10.1626 45.6418 9.53575 45.484 9.01818C45.3291 8.50061 45.1049 8.10621 44.8115 7.83497C44.5209 7.56373 44.1707 7.42811 43.7611 7.42811C43.1467 7.42811 42.6665 7.73118 42.3205 8.33731C41.9745 8.94069 41.8015 9.79454 41.8015 10.8989C41.8015 11.6351 41.879 12.2606 42.034 12.7754C42.189 13.2902 42.4118 13.6819 42.7025 13.9503C42.9958 14.2188 43.3487 14.353 43.7611 14.353ZM51.068 15.2664C50.4425 15.2664 49.9097 15.0962 49.4696 14.7557C49.0295 14.4125 48.6933 13.9157 48.4608 13.2653C48.2283 12.6121 48.112 11.8233 48.112 10.8989C48.112 9.97998 48.2283 9.19532 48.4608 8.5449C48.696 7.89171 49.0337 7.39351 49.4738 7.05031C49.9166 6.70434 50.448 6.53135 51.068 6.53135C51.688 6.53135 52.218 6.70434 52.6581 7.05031C53.1009 7.39351 53.4386 7.89171 53.6711 8.5449C53.9063 9.19532 54.024 9.97998 54.024 10.8989C54.024 11.8233 53.9077 12.6121 53.6752 13.2653C53.4427 13.9157 53.1064 14.4125 52.6664 14.7557C52.2263 15.0962 51.6935 15.2664 51.068 15.2664ZM51.068 14.353C51.688 14.353 52.1696 14.0541 52.5128 13.4563C52.856 12.8584 53.0276 12.006 53.0276 10.8989C53.0276 10.1626 52.9487 9.53575 52.7909 9.01818C52.6359 8.50061 52.4117 8.10621 52.1184 7.83497C51.8277 7.56373 51.4776 7.42811 51.068 7.42811C50.4536 7.42811 49.9733 7.73118 49.6274 8.33731C49.2814 8.94069 49.1084 9.79454 49.1084 10.8989C49.1084 11.6351 49.1859 12.2606 49.3409 12.7754C49.4959 13.2902 49.7187 13.6819 50.0093 13.9503C50.3027 14.2188 50.6556 14.353 51.068 14.353Z" fill="#A0A0A0"/>
<path d="M70.297 119.833H125.829V234.794H70.297V119.833Z" fill="#D4AF37"/>
<path d="M139.956 95.8823H195.488V234.794H139.956V95.8823Z" fill="#D4AF37"/>
<path d="M209.615 73.8481H265.147V234.794H209.615V73.8481Z" fill="#D4AF37"/>
<path d="M279.274 86.3022H334.806V234.794H279.274V86.3022Z" fill="#D4AF37"/>
<path d="M348.933 50.8557H404.465V234.794H348.933V50.8557Z" fill="#D4AF37"/>
<path d="M418.591 9.66113H474.124V234.794H418.591V9.66113Z" fill="#D4AF37"/>
<g clip-path="url(#clip0_5_4090)">
<path d="M186.64 272.005H200.273V282.23H186.64V272.005Z" fill="#D4AF37"/>
</g>
<path d="M205.56 280.088V268.751H209.391C210.277 268.751 211.004 268.902 211.572 269.205C212.14 269.504 212.561 269.915 212.834 270.439C213.107 270.963 213.244 271.56 213.244 272.227C213.244 272.895 213.107 273.488 212.834 274.004C212.561 274.521 212.142 274.927 211.578 275.222C211.013 275.514 210.291 275.66 209.413 275.66H206.313V274.42H209.369C209.974 274.42 210.461 274.331 210.83 274.154C211.203 273.977 211.472 273.726 211.639 273.401C211.808 273.073 211.893 272.681 211.893 272.227C211.893 271.774 211.808 271.377 211.639 271.037C211.469 270.698 211.197 270.436 210.825 270.251C210.452 270.063 209.959 269.969 209.347 269.969H206.933V280.088H205.56ZM210.897 274.995L213.687 280.088H212.092L209.347 274.995H210.897ZM218.523 280.265C217.704 280.265 216.997 280.084 216.403 279.723C215.813 279.357 215.357 278.848 215.036 278.195C214.719 277.538 214.56 276.774 214.56 275.903C214.56 275.032 214.719 274.265 215.036 273.6C215.357 272.932 215.804 272.412 216.376 272.039C216.951 271.663 217.623 271.475 218.391 271.475C218.833 271.475 219.271 271.548 219.703 271.696C220.134 271.844 220.527 272.084 220.882 272.416C221.236 272.744 221.518 273.18 221.729 273.722C221.939 274.265 222.044 274.933 222.044 275.726V276.28H215.49V275.15H220.716C220.716 274.671 220.62 274.242 220.428 273.866C220.24 273.49 219.97 273.193 219.62 272.975C219.273 272.757 218.863 272.648 218.391 272.648C217.87 272.648 217.42 272.777 217.04 273.036C216.664 273.29 216.374 273.622 216.171 274.032C215.968 274.442 215.866 274.881 215.866 275.35V276.102C215.866 276.745 215.977 277.289 216.199 277.735C216.424 278.178 216.735 278.516 217.134 278.749C217.533 278.977 217.996 279.092 218.523 279.092C218.867 279.092 219.177 279.044 219.453 278.948C219.734 278.848 219.976 278.701 220.179 278.505C220.382 278.306 220.538 278.058 220.649 277.763L221.911 278.117C221.778 278.546 221.555 278.922 221.242 279.247C220.928 279.568 220.54 279.819 220.079 280C219.618 280.177 219.099 280.265 218.523 280.265ZM230.421 271.585L227.277 280.088H225.948L222.804 271.585H224.221L226.568 278.361H226.657L229.004 271.585H230.421ZM235.101 280.265C234.282 280.265 233.575 280.084 232.981 279.723C232.391 279.357 231.935 278.848 231.614 278.195C231.297 277.538 231.138 276.774 231.138 275.903C231.138 275.032 231.297 274.265 231.614 273.6C231.935 272.932 232.382 272.412 232.954 272.039C233.529 271.663 234.201 271.475 234.969 271.475C235.411 271.475 235.849 271.548 236.281 271.696C236.712 271.844 237.105 272.084 237.46 272.416C237.814 272.744 238.096 273.18 238.307 273.722C238.517 274.265 238.622 274.933 238.622 275.726V276.28H232.068V275.15H237.294C237.294 274.671 237.198 274.242 237.006 273.866C236.818 273.49 236.548 273.193 236.198 272.975C235.851 272.757 235.441 272.648 234.969 272.648C234.448 272.648 233.998 272.777 233.618 273.036C233.241 273.29 232.952 273.622 232.749 274.032C232.546 274.442 232.444 274.881 232.444 275.35V276.102C232.444 276.745 232.555 277.289 232.776 277.735C233.002 278.178 233.313 278.516 233.712 278.749C234.111 278.977 234.574 279.092 235.101 279.092C235.445 279.092 235.755 279.044 236.031 278.948C236.312 278.848 236.554 278.701 236.757 278.505C236.96 278.306 237.116 278.058 237.227 277.763L238.489 278.117C238.356 278.546 238.133 278.922 237.819 279.247C237.506 279.568 237.118 279.819 236.657 280C236.196 280.177 235.677 280.265 235.101 280.265ZM241.611 274.973V280.088H240.305V271.585H241.567V272.914H241.678C241.877 272.482 242.18 272.135 242.586 271.873C242.992 271.607 243.516 271.475 244.158 271.475C244.734 271.475 245.237 271.593 245.669 271.829C246.101 272.061 246.437 272.416 246.677 272.892C246.916 273.364 247.036 273.962 247.036 274.685V280.088H245.73V274.774C245.73 274.106 245.557 273.586 245.21 273.213C244.863 272.836 244.387 272.648 243.781 272.648C243.364 272.648 242.992 272.739 242.663 272.919C242.338 273.1 242.082 273.364 241.894 273.711C241.706 274.058 241.611 274.479 241.611 274.973ZM254.478 276.612V271.585H255.784V280.088H254.478V278.649H254.389C254.19 279.081 253.88 279.448 253.459 279.75C253.038 280.049 252.507 280.199 251.865 280.199C251.333 280.199 250.861 280.083 250.448 279.85C250.034 279.614 249.71 279.26 249.473 278.787C249.237 278.311 249.119 277.711 249.119 276.988V271.585H250.426V276.9C250.426 277.52 250.599 278.014 250.946 278.383C251.297 278.752 251.743 278.937 252.286 278.937C252.61 278.937 252.941 278.854 253.276 278.688C253.616 278.522 253.9 278.267 254.129 277.924C254.361 277.58 254.478 277.143 254.478 276.612ZM261.437 280.265C260.618 280.265 259.911 280.084 259.317 279.723C258.727 279.357 258.271 278.848 257.95 278.195C257.633 277.538 257.474 276.774 257.474 275.903C257.474 275.032 257.633 274.265 257.95 273.6C258.271 272.932 258.718 272.412 259.29 272.039C259.865 271.663 260.537 271.475 261.305 271.475C261.747 271.475 262.185 271.548 262.617 271.696C263.048 271.844 263.441 272.084 263.796 272.416C264.15 272.744 264.432 273.18 264.643 273.722C264.853 274.265 264.958 274.933 264.958 275.726V276.28H258.404V275.15H263.63C263.63 274.671 263.534 274.242 263.342 273.866C263.153 273.49 262.884 273.193 262.533 272.975C262.187 272.757 261.777 272.648 261.305 272.648C260.784 272.648 260.334 272.777 259.954 273.036C259.577 273.29 259.288 273.622 259.085 274.032C258.882 274.442 258.78 274.881 258.78 275.35V276.102C258.78 276.745 258.891 277.289 259.112 277.735C259.338 278.178 259.649 278.516 260.048 278.749C260.447 278.977 260.91 279.092 261.437 279.092C261.781 279.092 262.091 279.044 262.367 278.948C262.648 278.848 262.89 278.701 263.093 278.505C263.296 278.306 263.452 278.058 263.563 277.763L264.825 278.117C264.692 278.546 264.469 278.922 264.155 279.247C263.842 279.568 263.454 279.819 262.993 280C262.532 280.177 262.013 280.265 261.437 280.265ZM271.186 274.42C271.186 273.025 271.367 271.742 271.728 270.572C272.094 269.399 272.614 268.319 273.289 267.334H274.441C274.175 267.699 273.926 268.15 273.693 268.685C273.465 269.216 273.263 269.801 273.09 270.439C272.917 271.074 272.78 271.731 272.68 272.41C272.584 273.089 272.536 273.759 272.536 274.42C272.536 275.298 272.621 276.189 272.791 277.093C272.961 277.997 273.19 278.837 273.478 279.612C273.765 280.387 274.086 281.018 274.441 281.505H273.289C272.614 280.52 272.094 279.442 271.728 278.272C271.367 277.099 271.186 275.815 271.186 274.42ZM279.385 281.505V267.334H280.293V281.505H279.385ZM282.441 271.585C282.375 271.024 282.105 270.589 281.633 270.279C281.161 269.969 280.581 269.814 279.895 269.814C279.393 269.814 278.954 269.895 278.577 270.057C278.205 270.22 277.913 270.443 277.703 270.727C277.496 271.011 277.393 271.334 277.393 271.696C277.393 271.999 277.465 272.259 277.609 272.477C277.756 272.691 277.944 272.87 278.173 273.014C278.402 273.154 278.642 273.27 278.893 273.362C279.144 273.451 279.374 273.523 279.585 273.578L280.736 273.888C281.031 273.966 281.36 274.073 281.722 274.209C282.087 274.346 282.436 274.532 282.768 274.768C283.104 275.001 283.38 275.3 283.598 275.665C283.816 276.03 283.925 276.479 283.925 277.01C283.925 277.623 283.764 278.176 283.443 278.671C283.126 279.166 282.661 279.559 282.048 279.85C281.439 280.142 280.699 280.287 279.828 280.287C279.016 280.287 278.313 280.156 277.719 279.894C277.129 279.632 276.664 279.267 276.324 278.798C275.988 278.33 275.798 277.785 275.754 277.165H277.171C277.208 277.593 277.352 277.948 277.603 278.228C277.858 278.505 278.179 278.712 278.566 278.848C278.957 278.981 279.378 279.047 279.828 279.047C280.352 279.047 280.823 278.963 281.24 278.793C281.657 278.619 281.987 278.379 282.231 278.073C282.474 277.763 282.596 277.401 282.596 276.988C282.596 276.612 282.491 276.305 282.281 276.069C282.07 275.833 281.793 275.641 281.45 275.494C281.107 275.346 280.736 275.217 280.338 275.106L278.943 274.707C278.057 274.453 277.356 274.089 276.839 273.617C276.322 273.145 276.064 272.526 276.064 271.762C276.064 271.128 276.236 270.574 276.579 270.102C276.926 269.626 277.391 269.257 277.974 268.995C278.561 268.729 279.216 268.596 279.939 268.596C280.67 268.596 281.319 268.727 281.888 268.989C282.456 269.247 282.906 269.602 283.238 270.052C283.574 270.502 283.751 271.013 283.77 271.585H282.441ZM288.49 274.42C288.49 275.815 288.308 277.099 287.942 278.272C287.581 279.442 287.062 280.52 286.387 281.505H285.235C285.501 281.14 285.748 280.69 285.977 280.155C286.21 279.623 286.413 279.04 286.586 278.405C286.759 277.767 286.894 277.108 286.99 276.429C287.09 275.746 287.14 275.077 287.14 274.42C287.14 273.541 287.055 272.65 286.885 271.746C286.715 270.842 286.486 270.002 286.199 269.227C285.911 268.452 285.59 267.821 285.235 267.334H286.387C287.062 268.319 287.581 269.399 287.942 270.572C288.308 271.742 288.49 273.025 288.49 274.42Z" fill="#D4AF37"/>
<defs>
<clipPath id="clip0_5_4090">
<rect width="13.6334" height="13.6334" fill="white" transform="translate(186.64 270.301)"/>
</clipPath>
</defs>
</svg>
