<svg width="487" height="293" viewBox="0 0 487 293" fill="none" xmlns="http://www.w3.org/2000/svg">
<path d="M63.331 234.794H481.284" stroke="#2A2A2A" stroke-width="0.97425" stroke-dasharray="2.92 2.92"/>
<path d="M63.331 177.313H481.284" stroke="#2A2A2A" stroke-width="0.97425" stroke-dasharray="2.92 2.92"/>
<path d="M63.331 119.833H481.284" stroke="#2A2A2A" stroke-width="0.97425" stroke-dasharray="2.92 2.92"/>
<path d="M63.331 62.3521H481.284" stroke="#2A2A2A" stroke-width="0.97425" stroke-dasharray="2.92 2.92"/>
<path d="M63.331 4.87109H481.284" stroke="#2A2A2A" stroke-width="0.97425" stroke-dasharray="2.92 2.92"/>
<path d="M63.331 4.87109V234.794" stroke="#2A2A2A" stroke-width="0.97425" stroke-dasharray="2.92 2.92"/>
<path d="M146.922 4.87109V234.794" stroke="#2A2A2A" stroke-width="0.97425" stroke-dasharray="2.92 2.92"/>
<path d="M230.512 4.87109V234.794" stroke="#2A2A2A" stroke-width="0.97425" stroke-dasharray="2.92 2.92"/>
<path d="M314.103 4.87109V234.794" stroke="#2A2A2A" stroke-width="0.97425" stroke-dasharray="2.92 2.92"/>
<path d="M397.694 4.87109V234.794" stroke="#2A2A2A" stroke-width="0.97425" stroke-dasharray="2.92 2.92"/>
<path d="M481.284 4.87109V234.794" stroke="#2A2A2A" stroke-width="0.97425" stroke-dasharray="2.92 2.92"/>
<path d="M63.331 234.794H481.284" stroke="#A0A0A0" stroke-width="0.97425"/>
<path d="M63.331 240.64V234.794" stroke="#A0A0A0" stroke-width="0.97425"/>
<path d="M57.4987 241.695H58.5284V247.773C58.5284 248.316 58.4287 248.777 58.2294 249.156C58.0302 249.535 57.7492 249.823 57.3867 250.019C57.0241 250.216 56.5965 250.314 56.1038 250.314C55.6388 250.314 55.225 250.23 54.8625 250.061C54.4999 249.889 54.2148 249.646 54.0072 249.33C53.7996 249.015 53.6959 248.64 53.6959 248.205H54.7089C54.7089 248.446 54.7684 248.656 54.8874 248.836C55.0092 249.013 55.1752 249.152 55.3856 249.251C55.5959 249.351 55.8353 249.401 56.1038 249.401C56.3999 249.401 56.6518 249.338 56.8594 249.214C57.067 249.089 57.2247 248.907 57.3327 248.666C57.4434 248.422 57.4987 248.125 57.4987 247.773V241.695ZM62.3354 250.347C61.9313 250.347 61.5646 250.271 61.2352 250.119C60.9059 249.964 60.6443 249.741 60.4506 249.45C60.2568 249.157 60.1599 248.803 60.1599 248.388C60.1599 248.022 60.2319 247.726 60.3758 247.499C60.5198 247.269 60.7121 247.09 60.9529 246.959C61.1937 246.829 61.4594 246.733 61.75 246.669C62.0434 246.602 62.3382 246.55 62.6343 246.511C63.0218 246.461 63.3359 246.424 63.5767 246.399C63.8203 246.371 63.9974 246.326 64.1082 246.262C64.2216 246.198 64.2784 246.088 64.2784 245.93V245.897C64.2784 245.487 64.1663 245.169 63.9421 244.942C63.7207 244.715 63.3844 244.601 62.9332 244.601C62.4655 244.601 62.0988 244.704 61.8331 244.909C61.5674 245.113 61.3805 245.332 61.2726 245.565L60.3426 245.232C60.5087 244.845 60.7301 244.543 61.0069 244.327C61.2864 244.109 61.5909 243.956 61.9202 243.871C62.2524 243.782 62.579 243.738 62.9 243.738C63.1048 243.738 63.3401 243.763 63.6058 243.813C63.8743 243.86 64.1331 243.958 64.3822 244.107C64.634 244.257 64.843 244.482 65.0091 244.784C65.1751 245.086 65.2582 245.49 65.2582 245.996V250.198H64.2784V249.334H64.2285C64.1621 249.473 64.0514 249.621 63.8964 249.778C63.7414 249.936 63.5352 250.07 63.2778 250.181C63.0204 250.292 62.7063 250.347 62.3354 250.347ZM62.4849 249.467C62.8723 249.467 63.1989 249.391 63.4646 249.239C63.7331 249.086 63.9352 248.89 64.0708 248.649C64.2092 248.408 64.2784 248.155 64.2784 247.889V246.993C64.2369 247.043 64.1455 247.088 64.0044 247.13C63.866 247.168 63.7054 247.203 63.5228 247.233C63.3429 247.261 63.1671 247.286 62.9955 247.308C62.8267 247.328 62.6897 247.344 62.5845 247.358C62.3299 247.391 62.0918 247.445 61.8704 247.52C61.6518 247.592 61.4746 247.701 61.339 247.848C61.2062 247.992 61.1397 248.188 61.1397 248.437C61.1397 248.778 61.2657 249.035 61.5175 249.21C61.7722 249.381 62.0946 249.467 62.4849 249.467ZM68.0263 246.362V250.198H67.0465V243.821H67.993V244.817H68.0761C68.2255 244.493 68.4525 244.233 68.7569 244.037C69.0614 243.837 69.4544 243.738 69.936 243.738C70.3678 243.738 70.7456 243.826 71.0694 244.004C71.3932 244.178 71.6451 244.444 71.825 244.801C72.0049 245.155 72.0949 245.603 72.0949 246.146V250.198H71.1151V246.212C71.1151 245.711 70.985 245.321 70.7248 245.041C70.4646 244.759 70.1076 244.618 69.6537 244.618C69.3409 244.618 69.0614 244.686 68.8151 244.821C68.5715 244.957 68.3791 245.155 68.238 245.415C68.0968 245.675 68.0263 245.991 68.0263 246.362Z" fill="#A0A0A0"/>
<path d="M146.922 240.64V234.794" stroke="#A0A0A0" stroke-width="0.97425"/>
<path d="M137.992 250.198V241.695H143.09V242.609H139.022V245.481H142.708V246.395H139.022V250.198H137.992ZM146.926 250.331C146.312 250.331 145.782 250.195 145.336 249.924C144.893 249.65 144.552 249.268 144.311 248.778C144.073 248.285 143.954 247.712 143.954 247.059C143.954 246.406 144.073 245.83 144.311 245.332C144.552 244.831 144.887 244.441 145.316 244.161C145.747 243.879 146.251 243.738 146.827 243.738C147.159 243.738 147.487 243.793 147.811 243.904C148.134 244.015 148.429 244.194 148.695 244.444C148.961 244.69 149.172 245.017 149.33 245.423C149.488 245.83 149.567 246.331 149.567 246.926V247.341H144.651V246.494H148.57C148.57 246.135 148.498 245.814 148.355 245.531C148.213 245.249 148.011 245.026 147.748 244.863C147.488 244.7 147.181 244.618 146.827 244.618C146.436 244.618 146.099 244.715 145.814 244.909C145.531 245.1 145.314 245.349 145.162 245.656C145.01 245.963 144.934 246.292 144.934 246.644V247.209C144.934 247.69 145.017 248.098 145.183 248.433C145.352 248.765 145.585 249.019 145.884 249.193C146.183 249.365 146.531 249.45 146.926 249.45C147.184 249.45 147.416 249.414 147.624 249.343C147.834 249.268 148.015 249.157 148.168 249.01C148.32 248.861 148.438 248.675 148.521 248.454L149.467 248.72C149.368 249.041 149.2 249.323 148.965 249.567C148.73 249.808 148.439 249.996 148.093 250.131C147.747 250.264 147.358 250.331 146.926 250.331ZM151.19 250.198V241.695H152.17V244.834H152.253C152.325 244.723 152.425 244.582 152.552 244.41C152.682 244.236 152.867 244.081 153.108 243.945C153.352 243.807 153.681 243.738 154.096 243.738C154.633 243.738 155.106 243.872 155.516 244.141C155.926 244.409 156.245 244.79 156.475 245.282C156.705 245.775 156.82 246.356 156.82 247.026C156.82 247.701 156.705 248.287 156.475 248.782C156.245 249.275 155.927 249.657 155.52 249.928C155.113 250.196 154.644 250.331 154.113 250.331C153.703 250.331 153.375 250.263 153.129 250.127C152.883 249.989 152.693 249.832 152.56 249.658C152.427 249.481 152.325 249.334 152.253 249.218H152.137V250.198H151.19ZM152.153 247.009C152.153 247.491 152.224 247.916 152.365 248.284C152.506 248.649 152.712 248.936 152.984 249.143C153.255 249.348 153.587 249.45 153.98 249.45C154.39 249.45 154.731 249.343 155.005 249.127C155.282 248.908 155.49 248.615 155.628 248.246C155.769 247.876 155.84 247.463 155.84 247.009C155.84 246.561 155.771 246.157 155.632 245.797C155.497 245.434 155.291 245.148 155.014 244.938C154.74 244.725 154.395 244.618 153.98 244.618C153.581 244.618 153.247 244.719 152.975 244.921C152.704 245.12 152.499 245.4 152.361 245.76C152.222 246.117 152.153 246.533 152.153 247.009Z" fill="#A0A0A0"/>
<path d="M230.512 240.64V234.794" stroke="#A0A0A0" stroke-width="0.97425"/>
<path d="M221.156 241.695H222.385L225.274 248.753H225.374L228.264 241.695H229.492V250.198H228.529V243.738H228.446L225.789 250.198H224.859L222.202 243.738H222.119V250.198H221.156V241.695ZM233.301 250.347C232.896 250.347 232.53 250.271 232.2 250.119C231.871 249.964 231.609 249.741 231.416 249.45C231.222 249.157 231.125 248.803 231.125 248.388C231.125 248.022 231.197 247.726 231.341 247.499C231.485 247.269 231.677 247.09 231.918 246.959C232.159 246.829 232.425 246.733 232.715 246.669C233.009 246.602 233.303 246.55 233.6 246.511C233.987 246.461 234.301 246.424 234.542 246.399C234.785 246.371 234.963 246.326 235.073 246.262C235.187 246.198 235.244 246.088 235.244 245.93V245.897C235.244 245.487 235.131 245.169 234.907 244.942C234.686 244.715 234.35 244.601 233.898 244.601C233.431 244.601 233.064 244.704 232.798 244.909C232.533 245.113 232.346 245.332 232.238 245.565L231.308 245.232C231.474 244.845 231.695 244.543 231.972 244.327C232.252 244.109 232.556 243.956 232.885 243.871C233.218 243.782 233.544 243.738 233.865 243.738C234.07 243.738 234.305 243.763 234.571 243.813C234.839 243.86 235.098 243.958 235.347 244.107C235.599 244.257 235.808 244.482 235.974 244.784C236.14 245.086 236.223 245.49 236.223 245.996V250.198H235.244V249.334H235.194C235.127 249.473 235.017 249.621 234.862 249.778C234.707 249.936 234.5 250.07 234.243 250.181C233.986 250.292 233.671 250.347 233.301 250.347ZM233.45 249.467C233.838 249.467 234.164 249.391 234.43 249.239C234.698 249.086 234.9 248.89 235.036 248.649C235.174 248.408 235.244 248.155 235.244 247.889V246.993C235.202 247.043 235.111 247.088 234.97 247.13C234.831 247.168 234.671 247.203 234.488 247.233C234.308 247.261 234.132 247.286 233.961 247.308C233.792 247.328 233.655 247.344 233.55 247.358C233.295 247.391 233.057 247.445 232.836 247.52C232.617 247.592 232.44 247.701 232.304 247.848C232.171 247.992 232.105 248.188 232.105 248.437C232.105 248.778 232.231 249.035 232.483 249.21C232.737 249.381 233.06 249.467 233.45 249.467ZM238.012 250.198V243.821H238.958V244.784H239.025C239.141 244.468 239.351 244.212 239.656 244.016C239.96 243.819 240.303 243.721 240.685 243.721C240.757 243.721 240.847 243.723 240.955 243.725C241.063 243.728 241.145 243.732 241.2 243.738V244.734C241.167 244.726 241.091 244.713 240.972 244.697C240.856 244.677 240.732 244.668 240.602 244.668C240.292 244.668 240.016 244.733 239.772 244.863C239.531 244.99 239.34 245.167 239.199 245.394C239.061 245.619 238.991 245.875 238.991 246.162V250.198H238.012Z" fill="#A0A0A0"/>
<path d="M314.103 240.64V234.794" stroke="#A0A0A0" stroke-width="0.97425"/>
<path d="M306.052 250.198H304.972L308.094 241.695H309.157L312.279 250.198H311.2L308.659 243.04H308.592L306.052 250.198ZM306.45 246.876H310.801V247.79H306.45V246.876ZM313.471 252.589V243.821H314.417V244.834H314.533C314.605 244.723 314.705 244.582 314.832 244.41C314.962 244.236 315.148 244.081 315.389 243.945C315.632 243.807 315.962 243.738 316.377 243.738C316.914 243.738 317.387 243.872 317.797 244.141C318.206 244.409 318.526 244.79 318.756 245.282C318.985 245.775 319.1 246.356 319.1 247.026C319.1 247.701 318.985 248.287 318.756 248.782C318.526 249.275 318.208 249.657 317.801 249.928C317.394 250.196 316.925 250.331 316.393 250.331C315.984 250.331 315.656 250.263 315.409 250.127C315.163 249.989 314.973 249.832 314.841 249.658C314.708 249.481 314.605 249.334 314.533 249.218H314.45V252.589H313.471ZM314.434 247.009C314.434 247.491 314.504 247.916 314.645 248.284C314.787 248.649 314.993 248.936 315.264 249.143C315.535 249.348 315.867 249.45 316.26 249.45C316.67 249.45 317.012 249.343 317.286 249.127C317.563 248.908 317.77 248.615 317.909 248.246C318.05 247.876 318.12 247.463 318.12 247.009C318.12 246.561 318.051 246.157 317.913 245.797C317.777 245.434 317.571 245.148 317.294 244.938C317.02 244.725 316.676 244.618 316.26 244.618C315.862 244.618 315.527 244.719 315.256 244.921C314.984 245.12 314.78 245.4 314.641 245.76C314.503 246.117 314.434 246.533 314.434 247.009ZM320.595 250.198V243.821H321.541V244.784H321.608C321.724 244.468 321.934 244.212 322.239 244.016C322.543 243.819 322.886 243.721 323.268 243.721C323.34 243.721 323.43 243.723 323.538 243.725C323.646 243.728 323.728 243.732 323.783 243.738V244.734C323.75 244.726 323.674 244.713 323.555 244.697C323.439 244.677 323.315 244.668 323.185 244.668C322.875 244.668 322.599 244.733 322.355 244.863C322.114 244.99 321.923 245.167 321.782 245.394C321.644 245.619 321.575 245.875 321.575 246.162V250.198H320.595Z" fill="#A0A0A0"/>
<path d="M397.694 240.64V234.794" stroke="#A0A0A0" stroke-width="0.97425"/>
<path d="M387.398 241.695H388.627L391.517 248.753H391.616L394.506 241.695H395.735V250.198H394.772V243.738H394.689L392.032 250.198H391.102L388.445 243.738H388.362V250.198H387.398V241.695ZM399.543 250.347C399.139 250.347 398.772 250.271 398.443 250.119C398.113 249.964 397.852 249.741 397.658 249.45C397.464 249.157 397.368 248.803 397.368 248.388C397.368 248.022 397.44 247.726 397.583 247.499C397.727 247.269 397.92 247.09 398.161 246.959C398.401 246.829 398.667 246.733 398.958 246.669C399.251 246.602 399.546 246.55 399.842 246.511C400.229 246.461 400.544 246.424 400.784 246.399C401.028 246.371 401.205 246.326 401.316 246.262C401.429 246.198 401.486 246.088 401.486 245.93V245.897C401.486 245.487 401.374 245.169 401.15 244.942C400.928 244.715 400.592 244.601 400.141 244.601C399.673 244.601 399.306 244.704 399.041 244.909C398.775 245.113 398.588 245.332 398.48 245.565L397.55 245.232C397.716 244.845 397.938 244.543 398.214 244.327C398.494 244.109 398.798 243.956 399.128 243.871C399.46 243.782 399.787 243.738 400.108 243.738C400.312 243.738 400.548 243.763 400.813 243.813C401.082 243.86 401.341 243.958 401.59 244.107C401.842 244.257 402.051 244.482 402.217 244.784C402.383 245.086 402.466 245.49 402.466 245.996V250.198H401.486V249.334H401.436C401.37 249.473 401.259 249.621 401.104 249.778C400.949 249.936 400.743 250.07 400.485 250.181C400.228 250.292 399.914 250.347 399.543 250.347ZM399.692 249.467C400.08 249.467 400.407 249.391 400.672 249.239C400.941 249.086 401.143 248.89 401.278 248.649C401.417 248.408 401.486 248.155 401.486 247.889V246.993C401.444 247.043 401.353 247.088 401.212 247.13C401.074 247.168 400.913 247.203 400.73 247.233C400.55 247.261 400.375 247.286 400.203 247.308C400.034 247.328 399.897 247.344 399.792 247.358C399.537 247.391 399.299 247.445 399.078 247.52C398.859 247.592 398.682 247.701 398.547 247.848C398.414 247.992 398.347 248.188 398.347 248.437C398.347 248.778 398.473 249.035 398.725 249.21C398.98 249.381 399.302 249.467 399.692 249.467ZM404.657 252.589C404.491 252.589 404.343 252.575 404.213 252.548C404.082 252.523 403.993 252.498 403.943 252.473L404.192 251.609C404.43 251.67 404.64 251.692 404.823 251.676C405.006 251.659 405.167 251.577 405.309 251.431C405.453 251.287 405.584 251.053 405.703 250.729L405.886 250.231L403.528 243.821H404.59L406.351 248.902H406.417L408.177 243.821H409.24L406.533 251.128C406.412 251.457 406.261 251.73 406.081 251.946C405.901 252.164 405.692 252.326 405.454 252.431C405.219 252.537 404.953 252.589 404.657 252.589Z" fill="#A0A0A0"/>
<path d="M481.284 240.64V234.794" stroke="#A0A0A0" stroke-width="0.97425"/>
<path d="M467.388 241.695H468.417V247.773C468.417 248.316 468.318 248.777 468.119 249.156C467.919 249.535 467.638 249.823 467.276 250.019C466.913 250.216 466.486 250.314 465.993 250.314C465.528 250.314 465.114 250.23 464.752 250.061C464.389 249.889 464.104 249.646 463.896 249.33C463.689 249.015 463.585 248.64 463.585 248.205H464.598C464.598 248.446 464.657 248.656 464.777 248.836C464.898 249.013 465.064 249.152 465.275 249.251C465.485 249.351 465.724 249.401 465.993 249.401C466.289 249.401 466.541 249.338 466.749 249.214C466.956 249.089 467.114 248.907 467.222 248.666C467.333 248.422 467.388 248.125 467.388 247.773V241.695ZM474.367 247.591V243.821H475.347V250.198H474.367V249.118H474.3C474.151 249.442 473.918 249.718 473.603 249.945C473.287 250.169 472.889 250.281 472.407 250.281C472.009 250.281 471.654 250.194 471.344 250.019C471.034 249.842 470.791 249.576 470.614 249.222C470.437 248.865 470.348 248.415 470.348 247.873V243.821H471.328V247.806C471.328 248.271 471.458 248.642 471.718 248.919C471.981 249.196 472.316 249.334 472.723 249.334C472.966 249.334 473.214 249.272 473.466 249.147C473.721 249.023 473.934 248.832 474.105 248.574C474.28 248.317 474.367 247.989 474.367 247.591ZM478.121 246.362V250.198H477.141V243.821H478.088V244.817H478.171C478.32 244.493 478.547 244.233 478.852 244.037C479.156 243.837 479.549 243.738 480.031 243.738C480.462 243.738 480.84 243.826 481.164 244.004C481.488 244.178 481.74 244.444 481.92 244.801C482.1 245.155 482.189 245.603 482.189 246.146V250.198H481.21V246.212C481.21 245.711 481.08 245.321 480.819 245.041C480.559 244.759 480.202 244.618 479.748 244.618C479.436 244.618 479.156 244.686 478.91 244.821C478.666 244.957 478.474 245.155 478.333 245.415C478.191 245.675 478.121 245.991 478.121 246.362Z" fill="#A0A0A0"/>
<path d="M63.331 4.87109V234.794" stroke="#A0A0A0" stroke-width="0.97425"/>
<path d="M57.4855 234.794H63.3312" stroke="#A0A0A0" stroke-width="0.97425"/>
<path d="M52.0896 238.37C51.4641 238.37 50.9313 238.2 50.4912 237.859C50.0512 237.516 49.7149 237.019 49.4824 236.369C49.2499 235.716 49.1336 234.927 49.1336 234.002C49.1336 233.083 49.2499 232.299 49.4824 231.648C49.7176 230.995 50.0553 230.497 50.4954 230.154C50.9382 229.808 51.4696 229.635 52.0896 229.635C52.7096 229.635 53.2396 229.808 53.6797 230.154C54.1225 230.497 54.4602 230.995 54.6927 231.648C54.9279 232.299 55.0456 233.083 55.0456 234.002C55.0456 234.927 54.9293 235.716 54.6968 236.369C54.4643 237.019 54.1281 237.516 53.688 237.859C53.2479 238.2 52.7151 238.37 52.0896 238.37ZM52.0896 237.457C52.7096 237.457 53.1912 237.158 53.5344 236.56C53.8776 235.962 54.0492 235.109 54.0492 234.002C54.0492 233.266 53.9703 232.639 53.8125 232.122C53.6575 231.604 53.4333 231.21 53.14 230.938C52.8494 230.667 52.4992 230.532 52.0896 230.532C51.4752 230.532 50.995 230.835 50.649 231.441C50.303 232.044 50.13 232.898 50.13 234.002C50.13 234.739 50.2075 235.364 50.3625 235.879C50.5175 236.394 50.7403 236.785 51.0309 237.054C51.3243 237.322 51.6772 237.457 52.0896 237.457Z" fill="#A0A0A0"/>
<path d="M57.4855 177.313H63.3312" stroke="#A0A0A0" stroke-width="0.97425"/>
<path d="M42.6121 180.773V180.026L45.4186 176.953C45.748 176.594 46.0192 176.281 46.2323 176.015C46.4454 175.747 46.6032 175.495 46.7056 175.26C46.8108 175.022 46.8634 174.772 46.8634 174.512C46.8634 174.213 46.7914 173.955 46.6475 173.736C46.5063 173.517 46.3126 173.348 46.0663 173.229C45.8199 173.11 45.5432 173.051 45.2359 173.051C44.9093 173.051 44.6243 173.119 44.3807 173.254C44.1399 173.387 43.9531 173.574 43.8202 173.815C43.6901 174.056 43.6251 174.338 43.6251 174.662H42.6453C42.6453 174.164 42.7602 173.726 42.9899 173.35C43.2196 172.973 43.5324 172.68 43.9282 172.47C44.3267 172.259 44.7737 172.154 45.2691 172.154C45.7673 172.154 46.2088 172.259 46.5935 172.47C46.9782 172.68 47.2799 172.964 47.4986 173.321C47.7172 173.678 47.8266 174.075 47.8266 174.512C47.8266 174.825 47.7698 175.131 47.6563 175.43C47.5456 175.726 47.3519 176.057 47.0751 176.422C46.8011 176.785 46.4205 177.227 45.9334 177.751L44.0237 179.793V179.86H47.976V180.773H42.6121ZM52.3477 180.889C51.8606 180.889 51.4219 180.792 51.0316 180.599C50.6414 180.405 50.3286 180.139 50.0933 179.801C49.8581 179.464 49.7294 179.079 49.7072 178.647H50.7036C50.7424 179.032 50.9168 179.35 51.2267 179.602C51.5395 179.851 51.9131 179.976 52.3477 179.976C52.6964 179.976 53.0064 179.894 53.2776 179.731C53.5517 179.568 53.7662 179.343 53.9212 179.058C54.0789 178.77 54.1578 178.445 54.1578 178.083C54.1578 177.712 54.0761 177.381 53.9128 177.09C53.7523 176.797 53.5309 176.566 53.2486 176.397C52.9663 176.228 52.6438 176.142 52.2813 176.14C52.0211 176.137 51.754 176.177 51.48 176.26C51.206 176.34 50.9804 176.444 50.8033 176.571L49.8401 176.455L50.3549 172.27H54.7722V173.184H51.2184L50.9195 175.691H50.9693C51.1437 175.553 51.3624 175.438 51.6253 175.347C51.8882 175.255 52.1622 175.21 52.4473 175.21C52.9677 175.21 53.4313 175.334 53.8381 175.583C54.2477 175.83 54.5688 176.167 54.8013 176.596C55.0366 177.025 55.1542 177.515 55.1542 178.066C55.1542 178.609 55.0324 179.093 54.7888 179.519C54.548 179.943 54.2159 180.278 53.7925 180.524C53.369 180.767 52.8874 180.889 52.3477 180.889Z" fill="#A0A0A0"/>
<path d="M57.4855 119.833H63.3312" stroke="#A0A0A0" stroke-width="0.97425"/>
<path d="M45.0408 123.408C44.5537 123.408 44.115 123.311 43.7247 123.118C43.3345 122.924 43.0217 122.658 42.7865 122.321C42.5512 121.983 42.4225 121.598 42.4004 121.166H43.3968C43.4355 121.551 43.6099 121.869 43.9199 122.121C44.2326 122.37 44.6063 122.495 45.0408 122.495C45.3895 122.495 45.6995 122.413 45.9708 122.25C46.2448 122.087 46.4593 121.862 46.6143 121.577C46.772 121.29 46.8509 120.964 46.8509 120.602C46.8509 120.231 46.7693 119.9 46.606 119.609C46.4454 119.316 46.224 119.085 45.9417 118.916C45.6594 118.747 45.337 118.662 44.9744 118.659C44.7142 118.656 44.4471 118.696 44.1731 118.779C43.8991 118.859 43.6735 118.963 43.4964 119.091L42.5332 118.974L43.048 114.789H47.4654V115.703H43.9116L43.6126 118.21H43.6625C43.8368 118.072 44.0555 117.957 44.3184 117.866C44.5814 117.774 44.8554 117.729 45.1404 117.729C45.6608 117.729 46.1244 117.853 46.5312 118.102C46.9409 118.349 47.2619 118.686 47.4944 119.115C47.7297 119.544 47.8473 120.034 47.8473 120.585C47.8473 121.128 47.7255 121.612 47.482 122.038C47.2412 122.462 46.909 122.797 46.4856 123.043C46.0621 123.286 45.5805 123.408 45.0408 123.408ZM52.2698 123.408C51.6443 123.408 51.1115 123.238 50.6715 122.898C50.2314 122.554 49.8951 122.058 49.6626 121.407C49.4301 120.754 49.3139 119.965 49.3139 119.041C49.3139 118.122 49.4301 117.337 49.6626 116.687C49.8979 116.034 50.2355 115.535 50.6756 115.192C51.1185 114.846 51.6499 114.673 52.2698 114.673C52.8898 114.673 53.4198 114.846 53.8599 115.192C54.3028 115.535 54.6404 116.034 54.8729 116.687C55.1082 117.337 55.2258 118.122 55.2258 119.041C55.2258 119.965 55.1096 120.754 54.8771 121.407C54.6446 122.058 54.3083 122.554 53.8682 122.898C53.4281 123.238 52.8954 123.408 52.2698 123.408ZM52.2698 122.495C52.8898 122.495 53.3714 122.196 53.7146 121.598C54.0578 121 54.2294 120.148 54.2294 119.041C54.2294 118.304 54.1505 117.678 53.9928 117.16C53.8378 116.642 53.6136 116.248 53.3202 115.977C53.0296 115.706 52.6795 115.57 52.2698 115.57C51.6554 115.57 51.1752 115.873 50.8292 116.479C50.4833 117.083 50.3103 117.936 50.3103 119.041C50.3103 119.777 50.3878 120.402 50.5428 120.917C50.6978 121.432 50.9206 121.824 51.2112 122.092C51.5046 122.361 51.8574 122.495 52.2698 122.495Z" fill="#A0A0A0"/>
<path d="M57.4855 62.3521H63.3312" stroke="#A0A0A0" stroke-width="0.97425"/>
<path d="M42.3916 65.8113L46.1945 58.2885V58.2221H41.8103V57.3087H47.2573V58.2719L43.471 65.8113H42.3916ZM51.3477 65.9275C50.8606 65.9275 50.4219 65.8307 50.0316 65.6369C49.6414 65.4432 49.3286 65.1775 49.0933 64.8398C48.8581 64.5021 48.7294 64.1174 48.7072 63.6856H49.7036C49.7424 64.0704 49.9168 64.3887 50.2267 64.6405C50.5395 64.8896 50.9131 65.0142 51.3477 65.0142C51.6964 65.0142 52.0064 64.9325 52.2777 64.7692C52.5517 64.6059 52.7662 64.3817 52.9212 64.0967C53.0789 63.8088 53.1578 63.4836 53.1578 63.121C53.1578 62.7501 53.0761 62.4194 52.9129 62.1288C52.7523 61.8354 52.5309 61.6043 52.2486 61.4355C51.9663 61.2666 51.6438 61.1808 51.2813 61.1781C51.0211 61.1753 50.754 61.2154 50.48 61.2985C50.206 61.3787 49.9804 61.4825 49.8033 61.6098L48.8401 61.4936L49.3549 57.3087H53.7722V58.2221H50.2184L49.9195 60.7297H49.9693C50.1437 60.5913 50.3624 60.4764 50.6253 60.3851C50.8882 60.2938 51.1622 60.2481 51.4473 60.2481C51.9677 60.2481 52.4313 60.3726 52.8381 60.6217C53.2477 60.8681 53.5688 61.2057 53.8013 61.6347C54.0366 62.0637 54.1542 62.5536 54.1542 63.1044C54.1542 63.6469 54.0324 64.1313 53.7888 64.5575C53.548 64.981 53.2159 65.3159 52.7925 65.5622C52.369 65.8057 51.8874 65.9275 51.3477 65.9275Z" fill="#A0A0A0"/>
<path d="M57.4855 4.87109H63.3312" stroke="#A0A0A0" stroke-width="0.97425"/>
<path d="M39.8988 6.6476V15.1501H38.8692V7.72702H38.8194L36.7436 9.10537V8.05915L38.8692 6.6476H39.8988ZM45.1174 15.2664C44.4919 15.2664 43.9591 15.0962 43.5191 14.7557C43.079 14.4125 42.7427 13.9157 42.5102 13.2653C42.2777 12.6121 42.1615 11.8233 42.1615 10.8989C42.1615 9.97998 42.2777 9.19532 42.5102 8.5449C42.7455 7.89171 43.0831 7.39351 43.5232 7.05031C43.9661 6.70434 44.4975 6.53135 45.1174 6.53135C45.7374 6.53135 46.2674 6.70434 46.7075 7.05031C47.1504 7.39351 47.488 7.89171 47.7205 8.5449C47.9558 9.19532 48.0734 9.97998 48.0734 10.8989C48.0734 11.8233 47.9572 12.6121 47.7247 13.2653C47.4922 13.9157 47.1559 14.4125 46.7158 14.7557C46.2758 15.0962 45.743 15.2664 45.1174 15.2664ZM45.1174 14.353C45.7374 14.353 46.219 14.0541 46.5622 13.4563C46.9054 12.8584 47.077 12.006 47.077 10.8989C47.077 10.1626 46.9981 9.53575 46.8404 9.01818C46.6854 8.50061 46.4612 8.10621 46.1678 7.83497C45.8772 7.56373 45.5271 7.42811 45.1174 7.42811C44.503 7.42811 44.0228 7.73118 43.6768 8.33731C43.3309 8.94069 43.1579 9.79454 43.1579 10.8989C43.1579 11.6351 43.2354 12.2606 43.3904 12.7754C43.5454 13.2902 43.7682 13.6819 44.0588 13.9503C44.3522 14.2188 44.705 14.353 45.1174 14.353ZM52.4243 15.2664C51.7988 15.2664 51.266 15.0962 50.8259 14.7557C50.3859 14.4125 50.0496 13.9157 49.8171 13.2653C49.5846 12.6121 49.4684 11.8233 49.4684 10.8989C49.4684 9.97998 49.5846 9.19532 49.8171 8.5449C50.0524 7.89171 50.39 7.39351 50.8301 7.05031C51.2729 6.70434 51.8043 6.53135 52.4243 6.53135C53.0443 6.53135 53.5743 6.70434 54.0144 7.05031C54.4572 7.39351 54.7949 7.89171 55.0274 8.5449C55.2627 9.19532 55.3803 9.97998 55.3803 10.8989C55.3803 11.8233 55.264 12.6121 55.0315 13.2653C54.7991 13.9157 54.4628 14.4125 54.0227 14.7557C53.5826 15.0962 53.0498 15.2664 52.4243 15.2664ZM52.4243 14.353C53.0443 14.353 53.5259 14.0541 53.8691 13.4563C54.2123 12.8584 54.3839 12.006 54.3839 10.8989C54.3839 10.1626 54.305 9.53575 54.1473 9.01818C53.9923 8.50061 53.7681 8.10621 53.4747 7.83497C53.1841 7.56373 52.8339 7.42811 52.4243 7.42811C51.8099 7.42811 51.3297 7.73118 50.9837 8.33731C50.6377 8.94069 50.4648 9.79454 50.4648 10.8989C50.4648 11.6351 50.5422 12.2606 50.6972 12.7754C50.8522 13.2902 51.075 13.6819 51.3657 13.9503C51.659 14.2188 52.0119 14.353 52.4243 14.353Z" fill="#A0A0A0"/>
<path d="M63.3311 131.329C91.1946 126.348 119.058 121.365 146.922 115.234C174.785 109.104 202.649 94.5414 230.512 94.5414C258.376 94.5414 286.239 101.439 314.103 101.439C341.967 101.439 369.83 84.1949 397.694 73.8483C425.557 63.5018 453.421 51.4308 481.284 39.3599" stroke="#ED1C24" stroke-width="1.9485"/>
<path d="M63.3312 134.252C64.9454 134.252 66.254 132.943 66.254 131.329C66.254 129.715 64.9454 128.406 63.3312 128.406C61.7169 128.406 60.4083 129.715 60.4083 131.329C60.4083 132.943 61.7169 134.252 63.3312 134.252Z" fill="white" stroke="#ED1C24" stroke-width="1.9485"/>
<path d="M146.922 118.157C148.536 118.157 149.845 116.849 149.845 115.234C149.845 113.62 148.536 112.312 146.922 112.312C145.308 112.312 143.999 113.62 143.999 115.234C143.999 116.849 145.308 118.157 146.922 118.157Z" fill="white" stroke="#ED1C24" stroke-width="1.9485"/>
<path d="M230.512 97.4643C232.127 97.4643 233.435 96.1557 233.435 94.5415C233.435 92.9273 232.127 91.6187 230.512 91.6187C228.898 91.6187 227.59 92.9273 227.59 94.5415C227.59 96.1557 228.898 97.4643 230.512 97.4643Z" fill="white" stroke="#ED1C24" stroke-width="1.9485"/>
<path d="M314.103 104.362C315.717 104.362 317.026 103.053 317.026 101.439C317.026 99.8247 315.717 98.5161 314.103 98.5161C312.489 98.5161 311.18 99.8247 311.18 101.439C311.18 103.053 312.489 104.362 314.103 104.362Z" fill="white" stroke="#ED1C24" stroke-width="1.9485"/>
<path d="M397.694 76.7712C399.308 76.7712 400.617 75.4626 400.617 73.8484C400.617 72.2341 399.308 70.9255 397.694 70.9255C396.08 70.9255 394.771 72.2341 394.771 73.8484C394.771 75.4626 396.08 76.7712 397.694 76.7712Z" fill="white" stroke="#ED1C24" stroke-width="1.9485"/>
<path d="M481.284 42.2827C482.899 42.2827 484.207 40.9741 484.207 39.3598C484.207 37.7456 482.899 36.437 481.284 36.437C479.67 36.437 478.362 37.7456 478.362 39.3598C478.362 40.9741 479.67 42.2827 481.284 42.2827Z" fill="white" stroke="#ED1C24" stroke-width="1.9485"/>
<g clip-path="url(#clip0_5_4015)">
<path d="M210.433 277.117H214.978M214.978 277.117C214.978 276.515 215.217 275.937 215.643 275.511C216.07 275.085 216.648 274.845 217.25 274.845C217.853 274.845 218.431 275.085 218.857 275.511C219.283 275.937 219.522 276.515 219.522 277.117M214.978 277.117C214.978 277.72 215.217 278.298 215.643 278.724C216.07 279.15 216.648 279.39 217.25 279.39C217.853 279.39 218.431 279.15 218.857 278.724C219.283 278.298 219.522 277.72 219.522 277.117M219.522 277.117H224.067" stroke="#ED1C24" stroke-width="1.70417"/>
</g>
<path d="M235.825 271.585C235.758 271.024 235.489 270.589 235.017 270.279C234.544 269.969 233.965 269.814 233.278 269.814C232.776 269.814 232.337 269.895 231.961 270.057C231.588 270.22 231.297 270.443 231.086 270.727C230.88 271.011 230.776 271.334 230.776 271.696C230.776 271.999 230.848 272.259 230.992 272.477C231.14 272.691 231.328 272.87 231.557 273.014C231.786 273.154 232.025 273.27 232.276 273.362C232.527 273.451 232.758 273.523 232.968 273.578L234.12 273.888C234.415 273.966 234.744 274.073 235.105 274.209C235.471 274.346 235.819 274.532 236.151 274.768C236.487 275.001 236.764 275.3 236.982 275.665C237.2 276.03 237.308 276.479 237.308 277.01C237.308 277.623 237.148 278.176 236.827 278.671C236.509 279.166 236.044 279.559 235.432 279.85C234.823 280.142 234.083 280.287 233.212 280.287C232.4 280.287 231.697 280.156 231.103 279.894C230.512 279.632 230.047 279.267 229.708 278.798C229.372 278.33 229.182 277.785 229.138 277.165H230.555C230.592 277.593 230.736 277.948 230.987 278.228C231.241 278.505 231.562 278.712 231.95 278.848C232.341 278.981 232.762 279.047 233.212 279.047C233.736 279.047 234.207 278.963 234.624 278.793C235.041 278.619 235.371 278.379 235.614 278.073C235.858 277.763 235.98 277.401 235.98 276.988C235.98 276.612 235.875 276.305 235.664 276.069C235.454 275.833 235.177 275.641 234.834 275.494C234.491 275.346 234.12 275.217 233.721 275.106L232.326 274.707C231.441 274.453 230.739 274.089 230.223 273.617C229.706 273.145 229.448 272.526 229.448 271.762C229.448 271.128 229.619 270.574 229.963 270.102C230.309 269.626 230.774 269.257 231.358 268.995C231.944 268.729 232.599 268.596 233.323 268.596C234.053 268.596 234.703 268.727 235.271 268.989C235.84 269.247 236.29 269.602 236.622 270.052C236.958 270.502 237.135 271.013 237.153 271.585H235.825ZM241.586 280.287C241.047 280.287 240.558 280.186 240.119 279.983C239.68 279.776 239.331 279.479 239.073 279.092C238.815 278.701 238.685 278.228 238.685 277.675C238.685 277.187 238.781 276.793 238.973 276.49C239.165 276.184 239.422 275.944 239.743 275.77C240.064 275.597 240.418 275.468 240.806 275.383C241.197 275.294 241.59 275.224 241.985 275.172C242.501 275.106 242.92 275.056 243.241 275.023C243.566 274.986 243.802 274.925 243.95 274.84C244.101 274.755 244.177 274.608 244.177 274.397V274.353C244.177 273.807 244.027 273.383 243.728 273.08C243.433 272.777 242.985 272.626 242.383 272.626C241.76 272.626 241.271 272.763 240.916 273.036C240.562 273.309 240.313 273.6 240.169 273.91L238.929 273.467C239.15 272.951 239.446 272.549 239.815 272.261C240.187 271.969 240.593 271.766 241.032 271.652C241.475 271.534 241.911 271.475 242.339 271.475C242.612 271.475 242.926 271.508 243.28 271.574C243.638 271.637 243.983 271.768 244.315 271.967C244.651 272.167 244.93 272.467 245.151 272.87C245.372 273.272 245.483 273.811 245.483 274.486V280.088H244.177V278.937H244.11C244.022 279.121 243.874 279.319 243.667 279.529C243.461 279.739 243.186 279.918 242.843 280.066C242.499 280.214 242.081 280.287 241.586 280.287ZM241.785 279.114C242.302 279.114 242.737 279.012 243.092 278.809C243.45 278.606 243.719 278.344 243.9 278.023C244.084 277.702 244.177 277.365 244.177 277.01V275.815C244.121 275.881 244 275.942 243.811 275.997C243.627 276.049 243.413 276.095 243.169 276.136C242.929 276.173 242.695 276.206 242.466 276.235C242.241 276.261 242.058 276.283 241.918 276.302C241.579 276.346 241.261 276.418 240.966 276.518C240.675 276.614 240.438 276.759 240.257 276.955C240.08 277.147 239.992 277.409 239.992 277.741C239.992 278.195 240.16 278.538 240.496 278.771C240.835 278.999 241.265 279.114 241.785 279.114ZM248.87 268.751V280.088H247.563V268.751H248.87ZM254.523 280.265C253.704 280.265 252.997 280.084 252.403 279.723C251.812 279.357 251.357 278.848 251.035 278.195C250.718 277.538 250.559 276.774 250.559 275.903C250.559 275.032 250.718 274.265 251.035 273.6C251.357 272.932 251.803 272.412 252.375 272.039C252.951 271.663 253.622 271.475 254.39 271.475C254.833 271.475 255.27 271.548 255.702 271.696C256.134 271.844 256.527 272.084 256.881 272.416C257.235 272.744 257.518 273.18 257.728 273.722C257.938 274.265 258.044 274.933 258.044 275.726V276.28H251.489V275.15H256.715C256.715 274.671 256.619 274.242 256.427 273.866C256.239 273.49 255.97 273.193 255.619 272.975C255.272 272.757 254.862 272.648 254.39 272.648C253.87 272.648 253.419 272.777 253.039 273.036C252.663 273.29 252.373 273.622 252.17 274.032C251.967 274.442 251.866 274.881 251.866 275.35V276.102C251.866 276.745 251.977 277.289 252.198 277.735C252.423 278.178 252.735 278.516 253.133 278.749C253.532 278.977 253.995 279.092 254.523 279.092C254.866 279.092 255.176 279.044 255.453 278.948C255.733 278.848 255.975 278.701 256.178 278.505C256.381 278.306 256.538 278.058 256.649 277.763L257.911 278.117C257.778 278.546 257.555 278.922 257.241 279.247C256.927 279.568 256.54 279.819 256.078 280C255.617 280.177 255.099 280.265 254.523 280.265ZM265.749 273.49L264.576 273.822C264.502 273.626 264.393 273.436 264.249 273.252C264.109 273.063 263.917 272.908 263.673 272.787C263.43 272.665 263.118 272.604 262.738 272.604C262.218 272.604 261.784 272.724 261.437 272.964C261.094 273.2 260.922 273.501 260.922 273.866C260.922 274.191 261.04 274.447 261.276 274.635C261.513 274.824 261.882 274.981 262.384 275.106L263.646 275.416C264.406 275.601 264.972 275.883 265.345 276.263C265.718 276.639 265.904 277.125 265.904 277.719C265.904 278.206 265.764 278.641 265.484 279.025C265.207 279.409 264.819 279.712 264.321 279.933C263.823 280.155 263.243 280.265 262.583 280.265C261.716 280.265 260.998 280.077 260.429 279.701C259.861 279.324 259.501 278.774 259.35 278.051L260.59 277.741C260.708 278.199 260.931 278.542 261.26 278.771C261.592 278.999 262.026 279.114 262.561 279.114C263.17 279.114 263.653 278.985 264.011 278.726C264.373 278.464 264.554 278.151 264.554 277.785C264.554 277.49 264.45 277.243 264.244 277.044C264.037 276.841 263.72 276.689 263.291 276.59L261.874 276.257C261.096 276.073 260.524 275.787 260.158 275.399C259.797 275.008 259.616 274.519 259.616 273.932C259.616 273.453 259.75 273.028 260.02 272.659C260.293 272.29 260.664 272.001 261.133 271.79C261.605 271.58 262.14 271.475 262.738 271.475C263.579 271.475 264.24 271.659 264.72 272.028C265.203 272.397 265.546 272.884 265.749 273.49Z" fill="#ED1C24"/>
<defs>
<clipPath id="clip0_5_4015">
<rect width="13.6334" height="13.6334" fill="white" transform="translate(210.433 270.301)"/>
</clipPath>
</defs>
</svg>
