<svg width="16" height="16" viewBox="0 0 16 16" fill="none" xmlns="http://www.w3.org/2000/svg">
<g clip-path="url(#clip0_5_6672)">
<path d="M14.1041 6.46947C14.3995 7.91953 14.189 9.42705 13.5075 10.7406C12.826 12.0542 11.7147 13.0945 10.3591 13.6879C9.00344 14.2814 7.48532 14.3921 6.05789 14.0017C4.63046 13.6113 3.38001 12.7434 2.51507 11.5426C1.65012 10.3419 1.22297 8.88088 1.30483 7.4033C1.3867 5.92572 1.97265 4.52086 2.96495 3.423C3.95726 2.32514 5.29594 1.60065 6.75776 1.37034C8.21958 1.14004 9.71617 1.41784 10.998 2.15741" stroke="white" stroke-width="1.29394" stroke-linecap="round" stroke-linejoin="round"/>
<path d="M5.82227 7.11668L7.76318 9.05759L14.2329 2.58789" stroke="white" stroke-width="1.29394" stroke-linecap="round" stroke-linejoin="round"/>
</g>
<defs>
<clipPath id="clip0_5_6672">
<rect width="15.5273" height="15.5273" fill="white"/>
</clipPath>
</defs>
</svg>
