<svg width="22" height="22" viewBox="0 0 22 22" fill="none" xmlns="http://www.w3.org/2000/svg">
<path d="M9.16671 4.58333H12.8334C12.8334 4.0971 12.6402 3.63079 12.2964 3.28697C11.9526 2.94315 11.4863 2.75 11 2.75C10.5138 2.75 10.0475 2.94315 9.70368 3.28697C9.35986 3.63079 9.16671 4.0971 9.16671 4.58333ZM7.79171 4.58333C7.79171 4.16201 7.87469 3.74481 8.03593 3.35556C8.19716 2.9663 8.43349 2.61262 8.73141 2.3147C9.02933 2.01678 9.38301 1.78045 9.77226 1.61922C10.1615 1.45799 10.5787 1.375 11 1.375C11.4214 1.375 11.8386 1.45799 12.2278 1.61922C12.6171 1.78045 12.9708 2.01678 13.2687 2.3147C13.5666 2.61262 13.8029 2.9663 13.9642 3.35556C14.1254 3.74481 14.2084 4.16201 14.2084 4.58333H19.4792C19.6615 4.58333 19.8364 4.65577 19.9653 4.7847C20.0943 4.91363 20.1667 5.0885 20.1667 5.27083C20.1667 5.45317 20.0943 5.62804 19.9653 5.75697C19.8364 5.8859 19.6615 5.95833 19.4792 5.95833H18.2692L17.1967 17.0601C17.1144 17.9107 16.7182 18.7002 16.0854 19.2746C15.4526 19.849 14.6285 20.167 13.7739 20.1667H8.22621C7.37175 20.1668 6.54788 19.8486 5.91524 19.2743C5.28261 18.6999 4.88655 17.9106 4.80429 17.0601L3.73087 5.95833H2.52087C2.33854 5.95833 2.16367 5.8859 2.03474 5.75697C1.90581 5.62804 1.83337 5.45317 1.83337 5.27083C1.83337 5.0885 1.90581 4.91363 2.03474 4.7847C2.16367 4.65577 2.33854 4.58333 2.52087 4.58333H7.79171ZM9.62504 8.9375C9.62504 8.75516 9.55261 8.5803 9.42368 8.45136C9.29474 8.32243 9.11988 8.25 8.93754 8.25C8.7552 8.25 8.58034 8.32243 8.45141 8.45136C8.32247 8.5803 8.25004 8.75516 8.25004 8.9375V15.8125C8.25004 15.9948 8.32247 16.1697 8.45141 16.2986C8.58034 16.4276 8.7552 16.5 8.93754 16.5C9.11988 16.5 9.29474 16.4276 9.42368 16.2986C9.55261 16.1697 9.62504 15.9948 9.62504 15.8125V8.9375ZM13.0625 8.25C13.2449 8.25 13.4197 8.32243 13.5487 8.45136C13.6776 8.5803 13.75 8.75516 13.75 8.9375V15.8125C13.75 15.9948 13.6776 16.1697 13.5487 16.2986C13.4197 16.4276 13.2449 16.5 13.0625 16.5C12.8802 16.5 12.7053 16.4276 12.5764 16.2986C12.4475 16.1697 12.375 15.9948 12.375 15.8125V8.9375C12.375 8.75516 12.4475 8.5803 12.5764 8.45136C12.7053 8.32243 12.8802 8.25 13.0625 8.25ZM6.17287 16.9281C6.22232 17.4383 6.46001 17.9119 6.83963 18.2564C7.21924 18.601 7.71356 18.7918 8.22621 18.7917H13.7739C14.2865 18.7918 14.7808 18.601 15.1605 18.2564C15.5401 17.9119 15.7778 17.4383 15.8272 16.9281L16.8887 5.95833H5.11137L6.17287 16.9281Z" fill="white"/>
</svg>
