<svg width="32" height="32" viewBox="0 0 32 32" fill="none" xmlns="http://www.w3.org/2000/svg">
<g clip-path="url(#clip0_5_5065)">
<path d="M15.9984 9.99902H11.3322C10.9786 9.99902 10.6395 10.1395 10.3895 10.3895C10.1395 10.6395 9.99902 10.9786 9.99902 11.3322V20.6646C9.99902 21.0182 10.1395 21.3573 10.3895 21.6073C10.6395 21.8574 10.9786 21.9978 11.3322 21.9978H20.6646C21.0182 21.9978 21.3573 21.8574 21.6073 21.6073C21.8574 21.3573 21.9978 21.0182 21.9978 20.6646V15.9984" stroke="#D4AF37" stroke-width="1.3332" stroke-linecap="round" stroke-linejoin="round"/>
<path d="M20.2477 9.74913C20.5129 9.48394 20.8726 9.33496 21.2476 9.33496C21.6227 9.33496 21.9824 9.48394 22.2475 9.74913C22.5127 10.0143 22.6617 10.374 22.6617 10.749C22.6617 11.1241 22.5127 11.4837 22.2475 11.7489L16.2395 17.7577C16.0812 17.9158 15.8856 18.0316 15.6709 18.0943L13.7557 18.6542C13.6984 18.671 13.6376 18.672 13.5797 18.6571C13.5218 18.6423 13.469 18.6122 13.4267 18.57C13.3845 18.5277 13.3544 18.4749 13.3395 18.417C13.3247 18.3591 13.3257 18.2983 13.3424 18.241L13.9024 16.3258C13.9654 16.1112 14.0814 15.9159 14.2397 15.7579L20.2477 9.74913Z" stroke="#D4AF37" stroke-width="1.3332" stroke-linecap="round" stroke-linejoin="round"/>
</g>
<defs>
<clipPath id="clip0_5_5065">
<rect width="15.9984" height="15.9984" fill="white" transform="translate(7.99902 7.99927)"/>
</clipPath>
</defs>
</svg>
