<svg width="32" height="32" viewBox="0 0 32 32" fill="none" xmlns="http://www.w3.org/2000/svg">
<path d="M9.3737 16.2305C9.31814 16.0809 9.31814 15.9162 9.3737 15.7666C9.91478 14.4546 10.8332 13.3328 12.0126 12.5435C13.192 11.7541 14.5792 11.3328 15.9984 11.3328C17.4175 11.3328 18.8047 11.7541 19.9841 12.5435C21.1635 13.3328 22.082 14.4546 22.623 15.7666C22.6786 15.9162 22.6786 16.0809 22.623 16.2305C22.082 17.5425 21.1635 18.6643 19.9841 19.4536C18.8047 20.243 17.4175 20.6643 15.9984 20.6643C14.5792 20.6643 13.192 20.243 12.0126 19.4536C10.8332 18.6643 9.91478 17.5425 9.3737 16.2305Z" stroke="#A0A0A0" stroke-width="1.3332" stroke-linecap="round" stroke-linejoin="round"/>
<path d="M15.9983 17.9984C17.1028 17.9984 17.9981 17.103 17.9981 15.9986C17.9981 14.8941 17.1028 13.9988 15.9983 13.9988C14.8939 13.9988 13.9985 14.8941 13.9985 15.9986C13.9985 17.103 14.8939 17.9984 15.9983 17.9984Z" stroke="#A0A0A0" stroke-width="1.3332" stroke-linecap="round" stroke-linejoin="round"/>
</svg>
