<svg width="16" height="16" viewBox="0 0 16 16" fill="none" xmlns="http://www.w3.org/2000/svg">
<path d="M1.33438 7.98889C1.28047 7.84364 1.28047 7.68385 1.33438 7.5386C1.85953 6.26527 2.75094 5.17654 3.89559 4.41043C5.04025 3.64433 6.38661 3.23535 7.76398 3.23535C9.14135 3.23535 10.4877 3.64433 11.6324 4.41043C12.777 5.17654 13.6684 6.26527 14.1936 7.5386C14.2475 7.68385 14.2475 7.84364 14.1936 7.98889C13.6684 9.26222 12.777 10.351 11.6324 11.1171C10.4877 11.8832 9.14135 12.2921 7.76398 12.2921C6.38661 12.2921 5.04025 11.8832 3.89559 11.1171C2.75094 10.351 1.85953 9.26222 1.33438 7.98889Z" stroke="#F5F5F5" stroke-width="1.29394" stroke-linecap="round" stroke-linejoin="round"/>
<path d="M7.76318 9.70458C8.83511 9.70458 9.70409 8.8356 9.70409 7.76367C9.70409 6.69173 8.83511 5.82275 7.76318 5.82275C6.69124 5.82275 5.82227 6.69173 5.82227 7.76367C5.82227 8.8356 6.69124 9.70458 7.76318 9.70458Z" stroke="#F5F5F5" stroke-width="1.29394" stroke-linecap="round" stroke-linejoin="round"/>
</svg>
