<svg width="39" height="39" viewBox="0 0 39 39" fill="none" xmlns="http://www.w3.org/2000/svg">
<path d="M0 11.6488C0 5.21535 5.21535 0 11.6488 0H27.1767C33.6102 0 38.8255 5.21535 38.8255 11.6488V27.1767C38.8255 33.6102 33.6102 38.8255 27.1767 38.8255H11.6488C5.21535 38.8255 0 33.6102 0 27.1767V11.6488Z" fill="#ED1C24" fill-opacity="0.2"/>
<path d="M19.5862 11.324H19.2303C18.8013 11.324 18.3898 11.4944 18.0864 11.7978C17.783 12.1012 17.6126 12.5127 17.6126 12.9417V13.0873C17.6123 13.371 17.5374 13.6496 17.3954 13.8952C17.2535 14.1408 17.0494 14.3448 16.8037 14.4866L16.4559 14.6889C16.21 14.8308 15.931 14.9056 15.647 14.9056C15.3631 14.9056 15.0841 14.8308 14.8382 14.6889L14.7168 14.6241C14.3456 14.41 13.9046 14.3519 13.4906 14.4626C13.0766 14.5733 12.7234 14.8438 12.5086 15.2146L12.3307 15.522C12.1166 15.8932 12.0585 16.3342 12.1692 16.7482C12.2799 17.1622 12.5503 17.5154 12.9212 17.7302L13.0425 17.8111C13.287 17.9522 13.4903 18.1549 13.6322 18.399C13.7741 18.643 13.8497 18.92 13.8514 19.2023V19.6148C13.8525 19.8999 13.7783 20.1802 13.6362 20.4273C13.4942 20.6745 13.2894 20.8797 13.0425 21.0223L12.9212 21.0951C12.5503 21.3099 12.2799 21.663 12.1692 22.077C12.0585 22.491 12.1166 22.932 12.3307 23.3033L12.5086 23.6106C12.7234 23.9815 13.0766 24.2519 13.4906 24.3626C13.9046 24.4733 14.3456 24.4152 14.7168 24.2011L14.8382 24.1364C15.0841 23.9944 15.3631 23.9197 15.647 23.9197C15.931 23.9197 16.21 23.9944 16.4559 24.1364L16.8037 24.3386C17.0494 24.4805 17.2535 24.6844 17.3954 24.93C17.5374 25.1756 17.6123 25.4543 17.6126 25.7379V25.8835C17.6126 26.3126 17.783 26.7241 18.0864 27.0274C18.3898 27.3308 18.8013 27.5013 19.2303 27.5013H19.5862C20.0153 27.5013 20.4267 27.3308 20.7301 27.0274C21.0335 26.7241 21.2039 26.3126 21.2039 25.8835V25.7379C21.2042 25.4543 21.2791 25.1756 21.4211 24.93C21.5631 24.6844 21.7671 24.4805 22.0128 24.3386L22.3606 24.1364C22.6065 23.9944 22.8855 23.9197 23.1695 23.9197C23.4535 23.9197 23.7324 23.9944 23.9783 24.1364L24.0997 24.2011C24.4709 24.4152 24.9119 24.4733 25.3259 24.3626C25.7399 24.2519 26.0931 23.9815 26.3079 23.6106L26.4858 23.2952C26.7 22.924 26.7581 22.4829 26.6473 22.0689C26.5366 21.6549 26.2662 21.3018 25.8954 21.087L25.774 21.0223C25.5272 20.8797 25.3223 20.6745 25.1803 20.4273C25.0382 20.1802 24.964 19.8999 24.9652 19.6148V19.2104C24.964 18.9253 25.0382 18.645 25.1803 18.3979C25.3223 18.1507 25.5272 17.9455 25.774 17.803L25.8954 17.7302C26.2662 17.5154 26.5366 17.1622 26.6473 16.7482C26.7581 16.3342 26.7 15.8932 26.4858 15.522L26.3079 15.2146C26.0931 14.8438 25.7399 14.5733 25.3259 14.4626C24.9119 14.3519 24.4709 14.41 24.0997 14.6241L23.9783 14.6889C23.7324 14.8308 23.4535 14.9056 23.1695 14.9056C22.8855 14.9056 22.6065 14.8308 22.3606 14.6889L22.0128 14.4866C21.7671 14.3448 21.5631 14.1408 21.4211 13.8952C21.2791 13.6496 21.2042 13.371 21.2039 13.0873V12.9417C21.2039 12.5127 21.0335 12.1012 20.7301 11.7978C20.4267 11.4944 20.0153 11.324 19.5862 11.324Z" stroke="#ED1C24" stroke-width="1.61773" stroke-linecap="round" stroke-linejoin="round"/>
<path d="M19.4071 21.8393C20.7472 21.8393 21.8337 20.7528 21.8337 19.4127C21.8337 18.0725 20.7472 16.9861 19.4071 16.9861C18.0669 16.9861 16.9805 18.0725 16.9805 19.4127C16.9805 20.7528 18.0669 21.8393 19.4071 21.8393Z" stroke="#ED1C24" stroke-width="1.61773" stroke-linecap="round" stroke-linejoin="round"/>
</svg>
