<svg width="39" height="39" viewBox="0 0 39 39" fill="none" xmlns="http://www.w3.org/2000/svg">
<path d="M0 11.6488C0 5.21535 5.21535 0 11.6488 0H27.1767C33.6102 0 38.8255 5.21535 38.8255 11.6488V27.1767C38.8255 33.6102 33.6102 38.8255 27.1767 38.8255H11.6488C5.21535 38.8255 0 33.6102 0 27.1767V11.6488Z" fill="#D4AF37" fill-opacity="0.2"/>
<path d="M19.407 27.5013C23.8742 27.5013 27.4957 23.8799 27.4957 19.4126C27.4957 14.9454 23.8742 11.324 19.407 11.324C14.9398 11.324 11.3184 14.9454 11.3184 19.4126C11.3184 23.8799 14.9398 27.5013 19.407 27.5013Z" stroke="#D4AF37" stroke-width="1.61773" stroke-linecap="round" stroke-linejoin="round"/>
<path d="M19.4073 11.324C17.3304 13.5048 16.1719 16.401 16.1719 19.4126C16.1719 22.4242 17.3304 25.3204 19.4073 27.5013C21.4843 25.3204 22.6428 22.4242 22.6428 19.4126C22.6428 16.401 21.4843 13.5048 19.4073 11.324Z" stroke="#D4AF37" stroke-width="1.61773" stroke-linecap="round" stroke-linejoin="round"/>
<path d="M11.3184 19.4126H27.4957" stroke="#D4AF37" stroke-width="1.61773" stroke-linecap="round" stroke-linejoin="round"/>
</svg>
