<svg width="30" height="35" viewBox="0 0 30 35" fill="none" xmlns="http://www.w3.org/2000/svg">
<path d="M26.1313 26.3651V3.11343H24.0054C24.0054 3.41055 24.0054 3.67658 24.0054 3.93916C24.0054 11.7853 23.998 19.628 24.0128 27.4742C24.0128 27.9129 23.8686 28.1928 23.5026 28.4623C22.6079 29.1256 21.7502 29.8304 20.7704 30.6043V3.07197C20.2824 3.07197 19.8461 3.05124 19.4173 3.08579C19.3026 3.09615 19.1585 3.2689 19.1141 3.38982C19.0623 3.53838 19.0993 3.71804 19.0993 3.88388C19.0993 11.5642 19.0993 19.2445 19.0993 26.9214C19.0993 28.4312 19.1252 29.9444 19.1178 31.4542C19.1178 31.6615 19.0623 31.9414 18.9144 32.0623C17.7905 32.9882 16.6333 33.8865 15.4022 34.8608V0.0419922H29.8506C29.8506 0.283837 29.8506 0.504953 29.8506 0.729524C29.8506 8.07817 29.8469 15.4268 29.8617 22.7754C29.8617 23.228 29.7397 23.5355 29.3478 23.8292C28.283 24.6238 27.2626 25.4668 26.1202 26.3686L26.1313 26.3651Z" fill="#ED1C24"/>
<path d="M10.7923 13.7817V0.00690987H14.5042V34.8568C13.6575 34.1866 12.9218 33.5025 12.0789 32.967C11.0621 32.3209 10.7442 31.5366 10.7701 30.3792C10.8588 26.1366 10.8107 21.8939 10.8144 17.6513C10.8144 17.4267 10.8144 17.2056 10.8144 16.9326H3.79726V26.3715C2.90995 25.6667 2.21119 25.0034 1.39782 24.4989C0.284978 23.8114 -0.0107937 22.9408 0.000297726 21.7073C0.0705434 14.7111 0.033572 7.71487 0.033572 0.718626C0.033572 0.494055 0.033572 0.269485 0.033572 0H3.75659V13.7817H10.7886H10.7923Z" fill="#ED1C24"/>
</svg>
