<svg width="47" height="47" viewBox="0 0 47 47" fill="none" xmlns="http://www.w3.org/2000/svg">
<path d="M0 15.5746C0 6.97296 6.97298 0 15.5746 0H31.1445C39.7461 0 46.7191 6.97298 46.7191 15.5746V31.1445C46.7191 39.7461 39.7461 46.7191 31.1445 46.7191H15.5746C6.97296 46.7191 0 39.7461 0 31.1445V15.5746Z" fill="#D08700" fill-opacity="0.2"/>
<path d="M23.3595 13.6262V33.0925" stroke="#F0B100" stroke-width="1.94663" stroke-linecap="round" stroke-linejoin="round"/>
<path d="M28.2261 16.5464H20.9263C20.0228 16.5464 19.1563 16.9053 18.5174 17.5442C17.8786 18.183 17.5197 19.0495 17.5197 19.953C17.5197 20.8565 17.8786 21.723 18.5174 22.3618C19.1563 23.0007 20.0228 23.3596 20.9263 23.3596H25.7928C26.6963 23.3596 27.5628 23.7185 28.2017 24.3574C28.8405 24.9962 29.1994 25.8627 29.1994 26.7662C29.1994 27.6697 28.8405 28.5362 28.2017 29.175C27.5628 29.8139 26.6963 30.1728 25.7928 30.1728H17.5197" stroke="#F0B100" stroke-width="1.94663" stroke-linecap="round" stroke-linejoin="round"/>
</svg>
