<svg width="20" height="20" viewBox="0 0 20 20" fill="none" xmlns="http://www.w3.org/2000/svg">
<g clip-path="url(#clip0_15_1442)">
<path d="M8.30469 16.9861C8.44668 17.232 8.65089 17.4362 8.89681 17.5782C9.14273 17.7201 9.42168 17.7949 9.70564 17.7949C9.9896 17.7949 10.2686 17.7201 10.5145 17.5782C10.7604 17.4362 10.9646 17.232 11.1066 16.9861" stroke="#ED1C24" stroke-width="1.61773" stroke-linecap="round" stroke-linejoin="round"/>
<path d="M2.63809 12.3966C2.53242 12.5124 2.46269 12.6564 2.43737 12.8112C2.41206 12.9659 2.43225 13.1246 2.49549 13.2681C2.55873 13.4115 2.6623 13.5335 2.7936 13.6192C2.92489 13.7049 3.07826 13.7505 3.23503 13.7506H16.1769C16.3336 13.7507 16.487 13.7052 16.6184 13.6197C16.7498 13.5342 16.8535 13.4123 16.9169 13.269C16.9803 13.1256 17.0007 12.9669 16.9756 12.8122C16.9505 12.6575 16.8809 12.5134 16.7754 12.3974C15.6996 11.2885 14.5591 10.1099 14.5591 6.47086C14.5591 5.18372 14.0478 3.94929 13.1377 3.03914C12.2275 2.12899 10.9931 1.61768 9.70595 1.61768C8.4188 1.61768 7.18438 2.12899 6.27423 3.03914C5.36408 3.94929 4.85276 5.18372 4.85276 6.47086C4.85276 10.1099 3.71145 11.2885 2.63809 12.3966Z" stroke="#ED1C24" stroke-width="1.61773" stroke-linecap="round" stroke-linejoin="round"/>
</g>
<defs>
<clipPath id="clip0_15_1442">
<rect width="19.4128" height="19.4128" fill="white"/>
</clipPath>
</defs>
</svg>
