<svg width="20" height="20" viewBox="0 0 20 20" fill="none" xmlns="http://www.w3.org/2000/svg">
<path d="M7.49924 2.49976H3.33299C2.8728 2.49976 2.49974 2.87281 2.49974 3.33301V9.16576C2.49974 9.62595 2.8728 9.99901 3.33299 9.99901H7.49924C7.95943 9.99901 8.33249 9.62595 8.33249 9.16576V3.33301C8.33249 2.87281 7.95943 2.49976 7.49924 2.49976Z" stroke="white" stroke-width="1.6665" stroke-linecap="round" stroke-linejoin="round"/>
<path d="M16.665 2.49976H12.4988C12.0386 2.49976 11.6655 2.87281 11.6655 3.33301V5.83276C11.6655 6.29295 12.0386 6.66601 12.4988 6.66601H16.665C17.1252 6.66601 17.4983 6.29295 17.4983 5.83276V3.33301C17.4983 2.87281 17.1252 2.49976 16.665 2.49976Z" stroke="white" stroke-width="1.6665" stroke-linecap="round" stroke-linejoin="round"/>
<path d="M16.665 9.99902H12.4988C12.0386 9.99902 11.6655 10.3721 11.6655 10.8323V16.665C11.6655 17.1252 12.0386 17.4983 12.4988 17.4983H16.665C17.1252 17.4983 17.4983 17.1252 17.4983 16.665V10.8323C17.4983 10.3721 17.1252 9.99902 16.665 9.99902Z" stroke="white" stroke-width="1.6665" stroke-linecap="round" stroke-linejoin="round"/>
<path d="M7.49924 13.332H3.33299C2.8728 13.332 2.49974 13.7051 2.49974 14.1653V16.665C2.49974 17.1252 2.8728 17.4983 3.33299 17.4983H7.49924C7.95943 17.4983 8.33249 17.1252 8.33249 16.665V14.1653C8.33249 13.7051 7.95943 13.332 7.49924 13.332Z" stroke="white" stroke-width="1.6665" stroke-linecap="round" stroke-linejoin="round"/>
</svg>
