<svg width="20" height="20" viewBox="0 0 20 20" fill="none" xmlns="http://www.w3.org/2000/svg">
<g clip-path="url(#clip0_7_81)">
<path d="M10.4873 2.15479C10.1748 1.84224 9.751 1.6666 9.30906 1.6665H3.33299C2.89101 1.6665 2.46712 1.84208 2.1546 2.15461C1.84207 2.46714 1.66649 2.89102 1.66649 3.333V9.30907C1.66658 9.75102 1.84222 10.1748 2.15477 10.4873L9.40738 17.7399C9.7861 18.1162 10.2983 18.3274 10.8322 18.3274C11.3661 18.3274 11.8784 18.1162 12.2571 17.7399L17.7399 12.2571C18.1162 11.8784 18.3274 11.3662 18.3274 10.8323C18.3274 10.2983 18.1162 9.78612 17.7399 9.4074L10.4873 2.15479Z" stroke="#A0A0A0" stroke-width="1.6665" stroke-linecap="round" stroke-linejoin="round"/>
<path d="M6.24937 6.66601C6.47947 6.66601 6.666 6.47948 6.666 6.24939C6.666 6.01929 6.47947 5.83276 6.24937 5.83276C6.01928 5.83276 5.83275 6.01929 5.83275 6.24939C5.83275 6.47948 6.01928 6.66601 6.24937 6.66601Z" fill="#A0A0A0" stroke="#A0A0A0" stroke-width="1.6665" stroke-linecap="round" stroke-linejoin="round"/>
</g>
<defs>
<clipPath id="clip0_7_81">
<rect width="19.998" height="19.998" fill="white"/>
</clipPath>
</defs>
</svg>
