<svg width="20" height="20" viewBox="0 0 20 20" fill="none" xmlns="http://www.w3.org/2000/svg">
<g clip-path="url(#clip0_7_72)">
<path d="M15.8317 14.1653H17.4982C17.9982 14.1653 18.3315 13.832 18.3315 13.332V10.8323C18.3315 10.0823 17.7482 9.41574 17.0816 9.24909C15.5818 8.83246 13.332 8.33251 13.332 8.33251C13.332 8.33251 12.2488 7.16596 11.4988 6.41604C11.0822 6.08274 10.5823 5.83276 9.99899 5.83276H4.16624C3.66629 5.83276 3.24966 6.16606 2.99969 6.58269L1.83314 8.99911C1.7228 9.32094 1.66649 9.6588 1.66649 9.99901V13.332C1.66649 13.832 1.99979 14.1653 2.49974 14.1653H4.16624" stroke="#A0A0A0" stroke-width="1.6665" stroke-linecap="round" stroke-linejoin="round"/>
<path d="M5.83274 15.8318C6.75313 15.8318 7.49924 15.0857 7.49924 14.1653C7.49924 13.2449 6.75313 12.4988 5.83274 12.4988C4.91236 12.4988 4.16624 13.2449 4.16624 14.1653C4.16624 15.0857 4.91236 15.8318 5.83274 15.8318Z" stroke="#A0A0A0" stroke-width="1.6665" stroke-linecap="round" stroke-linejoin="round"/>
<path d="M7.49925 14.1653H12.4988" stroke="#A0A0A0" stroke-width="1.6665" stroke-linecap="round" stroke-linejoin="round"/>
<path d="M14.1653 15.8318C15.0856 15.8318 15.8318 15.0857 15.8318 14.1653C15.8318 13.2449 15.0856 12.4988 14.1653 12.4988C13.2449 12.4988 12.4988 13.2449 12.4988 14.1653C12.4988 15.0857 13.2449 15.8318 14.1653 15.8318Z" stroke="#A0A0A0" stroke-width="1.6665" stroke-linecap="round" stroke-linejoin="round"/>
</g>
<defs>
<clipPath id="clip0_7_72">
<rect width="19.998" height="19.998" fill="white"/>
</clipPath>
</defs>
</svg>
