<svg width="20" height="20" viewBox="0 0 20 20" fill="none" xmlns="http://www.w3.org/2000/svg">
<g clip-path="url(#clip0_7_110)">
<path d="M9.6032 1.91222C9.63971 1.83845 9.69612 1.77635 9.76606 1.73293C9.836 1.68951 9.91667 1.6665 9.99899 1.6665C10.0813 1.6665 10.162 1.68951 10.2319 1.73293C10.3019 1.77635 10.3583 1.83845 10.3948 1.91222L12.3196 5.811C12.4464 6.06761 12.6336 6.28963 12.8651 6.45798C13.0965 6.62634 13.3654 6.736 13.6486 6.77757L17.9532 7.40751C18.0348 7.41933 18.1114 7.45373 18.1744 7.50683C18.2374 7.55993 18.2844 7.62961 18.3098 7.70798C18.3353 7.78636 18.3384 7.8703 18.3186 7.95032C18.2989 8.03033 18.2572 8.10323 18.1982 8.16077L15.0852 11.1921C14.8799 11.3922 14.7262 11.6392 14.6376 11.9117C14.5489 12.1843 14.5278 12.4744 14.576 12.757L15.311 17.0399C15.3254 17.1214 15.3166 17.2053 15.2855 17.2821C15.2545 17.3589 15.2026 17.4253 15.1356 17.474C15.0686 17.5226 14.9893 17.5515 14.9067 17.5572C14.8241 17.563 14.7416 17.5454 14.6685 17.5065L10.8206 15.4834C10.567 15.3502 10.2849 15.2807 9.99858 15.2807C9.71221 15.2807 9.43012 15.3502 9.17657 15.4834L5.32946 17.5065C5.25641 17.5452 5.17397 17.5626 5.09153 17.5567C5.00908 17.5508 4.92993 17.522 4.86309 17.4734C4.79624 17.4247 4.74438 17.3583 4.7134 17.2817C4.68242 17.2051 4.67357 17.1213 4.68786 17.0399L5.42195 12.7578C5.47044 12.4751 5.44943 12.1849 5.36074 11.9121C5.27204 11.6393 5.11832 11.3922 4.91283 11.1921L1.79981 8.1616C1.74031 8.10413 1.69815 8.03111 1.67813 7.95085C1.6581 7.87059 1.66102 7.78632 1.68656 7.70764C1.71209 7.62896 1.75921 7.55903 1.82254 7.50582C1.88588 7.45261 1.96288 7.41826 2.04479 7.40667L6.34852 6.77757C6.63204 6.73632 6.90129 6.6268 7.1331 6.45843C7.36491 6.29005 7.55232 6.06787 7.67922 5.811L9.6032 1.91222Z" stroke="#A0A0A0" stroke-width="1.6665" stroke-linecap="round" stroke-linejoin="round"/>
</g>
<defs>
<clipPath id="clip0_7_110">
<rect width="19.998" height="19.998" fill="white"/>
</clipPath>
</defs>
</svg>
