<svg width="20" height="20" viewBox="0 0 20 20" fill="none" xmlns="http://www.w3.org/2000/svg">
<g clip-path="url(#clip0_7_138)">
<path d="M10.1823 1.6665H9.81568C9.37369 1.6665 8.94981 1.84208 8.63728 2.15461C8.32475 2.46714 8.14918 2.89102 8.14918 3.333V3.48299C8.14888 3.77523 8.07173 4.06226 7.92548 4.31527C7.77923 4.56828 7.56902 4.77839 7.31593 4.92451L6.95763 5.13282C6.70429 5.27909 6.41691 5.35609 6.12438 5.35609C5.83185 5.35609 5.54447 5.27909 5.29113 5.13282L5.16614 5.06616C4.78373 4.84557 4.32942 4.78573 3.90294 4.89977C3.47645 5.01381 3.11264 5.29242 2.89137 5.67444L2.70805 5.99107C2.48746 6.37348 2.42762 6.82779 2.54166 7.25428C2.6557 7.68076 2.93431 8.04457 3.31633 8.26584L3.44131 8.34917C3.69318 8.49458 3.90262 8.70337 4.04879 8.9548C4.19497 9.20623 4.27281 9.49153 4.27456 9.78236V10.2073C4.27573 10.501 4.19928 10.7897 4.05296 11.0443C3.90663 11.2989 3.69563 11.5103 3.44131 11.6572L3.31633 11.7322C2.93431 11.9534 2.6557 12.3172 2.54166 12.7437C2.42762 13.1702 2.48746 13.6245 2.70805 14.0069L2.89137 14.3236C3.11264 14.7056 3.47645 14.9842 3.90294 15.0982C4.32942 15.2123 4.78373 15.1524 5.16614 14.9318L5.29113 14.8652C5.54447 14.7189 5.83185 14.6419 6.12438 14.6419C6.41691 14.6419 6.70429 14.7189 6.95763 14.8652L7.31593 15.0735C7.56902 15.2196 7.77923 15.4297 7.92548 15.6827C8.07173 15.9358 8.14888 16.2228 8.14918 16.515V16.665C8.14918 17.107 8.32475 17.5309 8.63728 17.8434C8.94981 18.1559 9.37369 18.3315 9.81568 18.3315H10.1823C10.6243 18.3315 11.0482 18.1559 11.3607 17.8434C11.6732 17.5309 11.8488 17.107 11.8488 16.665V16.515C11.8491 16.2228 11.9263 15.9358 12.0725 15.6827C12.2188 15.4297 12.429 15.2196 12.6821 15.0735L13.0404 14.8652C13.2937 14.7189 13.5811 14.6419 13.8736 14.6419C14.1661 14.6419 14.4535 14.7189 14.7069 14.8652L14.8318 14.9318C15.2142 15.1524 15.6686 15.2123 16.095 15.0982C16.5215 14.9842 16.8853 14.7056 17.1066 14.3236L17.2899 13.9986C17.5105 13.6162 17.5704 13.1619 17.4563 12.7354C17.3423 12.3089 17.0637 11.9451 16.6817 11.7238L16.5567 11.6572C16.3024 11.5103 16.0914 11.2989 15.945 11.0443C15.7987 10.7897 15.7223 10.501 15.7234 10.2073V9.79069C15.7223 9.49704 15.7987 9.20829 15.945 8.95369C16.0914 8.69908 16.3024 8.48766 16.5567 8.34084L16.6817 8.26584C17.0637 8.04457 17.3423 7.68076 17.4563 7.25428C17.5704 6.82779 17.5105 6.37348 17.2899 5.99107L17.1066 5.67444C16.8853 5.29242 16.5215 5.01381 16.095 4.89977C15.6686 4.78573 15.2142 4.84557 14.8318 5.06616L14.7069 5.13282C14.4535 5.27909 14.1661 5.35609 13.8736 5.35609C13.5811 5.35609 13.2937 5.27909 13.0404 5.13282L12.6821 4.92451C12.429 4.77839 12.2188 4.56828 12.0725 4.31527C11.9263 4.06226 11.8491 3.77523 11.8488 3.48299V3.333C11.8488 2.89102 11.6732 2.46714 11.3607 2.15461C11.0482 1.84208 10.6243 1.6665 10.1823 1.6665Z" stroke="#A0A0A0" stroke-width="1.6665" stroke-linecap="round" stroke-linejoin="round"/>
<path d="M9.999 12.4988C11.3796 12.4988 12.4988 11.3796 12.4988 9.99902C12.4988 8.61844 11.3796 7.49927 9.999 7.49927C8.61843 7.49927 7.49925 8.61844 7.49925 9.99902C7.49925 11.3796 8.61843 12.4988 9.999 12.4988Z" stroke="#A0A0A0" stroke-width="1.6665" stroke-linecap="round" stroke-linejoin="round"/>
</g>
<defs>
<clipPath id="clip0_7_138">
<rect width="19.998" height="19.998" fill="white"/>
</clipPath>
</defs>
</svg>
