<svg width="20" height="20" viewBox="0 0 20 20" fill="none" xmlns="http://www.w3.org/2000/svg">
<g clip-path="url(#clip0_7_122)">
<path d="M8.5558 17.4983C8.70207 17.7516 8.91245 17.962 9.16578 18.1082C9.41911 18.2545 9.70647 18.3315 9.99899 18.3315C10.2915 18.3315 10.5789 18.2545 10.8322 18.1082C11.0855 17.962 11.2959 17.7516 11.4422 17.4983" stroke="#A0A0A0" stroke-width="1.6665" stroke-linecap="round" stroke-linejoin="round"/>
<path d="M2.71805 12.7704C2.6092 12.8897 2.53737 13.0381 2.51129 13.1975C2.48521 13.3568 2.50601 13.5204 2.57116 13.6681C2.63631 13.8159 2.743 13.9416 2.87825 14.0298C3.0135 14.1181 3.17149 14.1651 3.33299 14.1653H16.665C16.8265 14.1653 16.9845 14.1184 17.1198 14.0304C17.2552 13.9423 17.362 13.8167 17.4273 13.6691C17.4926 13.5214 17.5137 13.3579 17.4878 13.1985C17.4619 13.0391 17.3903 12.8907 17.2816 12.7712C16.1734 11.6288 14.9985 10.4148 14.9985 6.666C14.9985 5.34005 14.4718 4.06841 13.5342 3.13082C12.5966 2.19324 11.3249 1.6665 9.99899 1.6665C8.67304 1.6665 7.4014 2.19324 6.46381 3.13082C5.52622 4.06841 4.99949 5.34005 4.99949 6.666C4.99949 10.4148 3.82378 11.6288 2.71805 12.7704Z" stroke="#A0A0A0" stroke-width="1.6665" stroke-linecap="round" stroke-linejoin="round"/>
</g>
<defs>
<clipPath id="clip0_7_122">
<rect width="19.998" height="19.998" fill="white"/>
</clipPath>
</defs>
</svg>
