<svg width="47" height="47" viewBox="0 0 47 47" fill="none" xmlns="http://www.w3.org/2000/svg">
<path d="M0 15.5746C0 6.97296 6.97298 0 15.5746 0H31.1445C39.7461 0 46.7191 6.97298 46.7191 15.5746V31.1445C46.7191 39.7461 39.7461 46.7191 31.1445 46.7191H15.5746C6.97296 46.7191 0 39.7461 0 31.1445V15.5746Z" fill="#ED1C24" fill-opacity="0.2"/>
<path d="M27.2527 32.1194V30.1728C27.2527 29.1402 26.8426 28.15 26.1124 27.4199C25.3823 26.6897 24.392 26.2795 23.3595 26.2795H17.5196C16.487 26.2795 15.4968 26.6897 14.7667 27.4199C14.0365 28.15 13.6263 29.1402 13.6263 30.1728V32.1194" stroke="#ED1C24" stroke-width="1.94663" stroke-linecap="round" stroke-linejoin="round"/>
<path d="M20.4399 22.3871C22.5903 22.3871 24.3336 20.6439 24.3336 18.4935C24.3336 16.3431 22.5903 14.5999 20.4399 14.5999C18.2895 14.5999 16.5463 16.3431 16.5463 18.4935C16.5463 20.6439 18.2895 22.3871 20.4399 22.3871Z" stroke="#ED1C24" stroke-width="1.94663" stroke-linecap="round" stroke-linejoin="round"/>
<path d="M33.0928 32.1199V30.1731C33.0922 29.3104 32.8051 28.4723 32.2765 27.7905C31.748 27.1087 31.0079 26.6217 30.1726 26.406" stroke="#ED1C24" stroke-width="1.94663" stroke-linecap="round" stroke-linejoin="round"/>
<path d="M27.2527 14.7261C28.0902 14.9405 28.8326 15.4276 29.3627 16.1106C29.8928 16.7935 30.1806 17.6335 30.1806 18.498C30.1806 19.3626 29.8928 20.2026 29.3627 20.8855C28.8326 21.5685 28.0902 22.0556 27.2527 22.27" stroke="#ED1C24" stroke-width="1.94663" stroke-linecap="round" stroke-linejoin="round"/>
</svg>
