<svg width="39" height="39" viewBox="0 0 39 39" fill="none" xmlns="http://www.w3.org/2000/svg">
<path d="M0 11.6488C0 5.21535 5.21535 0 11.6488 0H27.1767C33.6102 0 38.8255 5.21535 38.8255 11.6488V27.1767C38.8255 33.6102 33.6102 38.8255 27.1767 38.8255H11.6488C5.21535 38.8255 0 33.6102 0 27.1767V11.6488Z" fill="#F0B100" fill-opacity="0.2"/>
<path d="M25.8784 20.2214C25.8784 24.2657 23.0473 26.2878 19.6825 27.4607C19.5063 27.5204 19.3149 27.5176 19.1405 27.4526C15.7676 26.2878 12.9365 24.2657 12.9365 20.2214V14.5593C12.9365 14.3448 13.0217 14.139 13.1734 13.9874C13.3251 13.8357 13.5309 13.7504 13.7454 13.7504C15.3631 13.7504 17.3853 12.7798 18.7927 11.5503C18.9641 11.4039 19.1821 11.3235 19.4074 11.3235C19.6328 11.3235 19.8508 11.4039 20.0222 11.5503C21.4377 12.7879 23.4518 13.7504 25.0695 13.7504C25.284 13.7504 25.4898 13.8357 25.6414 13.9874C25.7931 14.139 25.8784 14.3448 25.8784 14.5593V20.2214Z" stroke="#F0B100" stroke-width="1.61773" stroke-linecap="round" stroke-linejoin="round"/>
</svg>
