<svg width="56" height="67" viewBox="0 0 56 67" fill="none" xmlns="http://www.w3.org/2000/svg">
<path d="M49.0025 50.0209V5.90727H45.016C45.016 6.47099 45.016 6.9757 45.016 7.47387C45.016 22.3598 45.0022 37.2391 45.0299 52.125C45.0299 52.9575 44.7595 53.4884 44.0731 53.9997C42.3953 55.2582 40.7869 56.5954 38.9496 58.0636V5.82862C38.0344 5.82862 37.2163 5.78929 36.4121 5.85484C36.1972 5.8745 35.9268 6.20224 35.8436 6.43166C35.7465 6.71351 35.8159 7.05436 35.8159 7.36899C35.8159 21.9403 35.8159 36.5115 35.8159 51.0762C35.8159 53.9407 35.8644 56.8117 35.8505 59.6761C35.8505 60.0694 35.7465 60.6003 35.4692 60.8297C33.3616 62.5864 31.1915 64.2907 28.8828 66.1391V0.0800781H55.9772C55.9772 0.538912 55.9772 0.958418 55.9772 1.38448C55.9772 15.3265 55.9703 29.2685 55.998 43.2105C55.998 44.0692 55.7692 44.6526 55.0343 45.2097C53.0376 46.7173 51.1241 48.3167 48.9817 50.0275L49.0025 50.0209Z" fill="#ED1C24"/>
<path d="M20.2382 26.147V0.0131096H27.1989V66.1311C25.6113 64.8595 24.2316 63.5617 22.6509 62.5457C20.7443 61.3199 20.148 59.832 20.1966 57.6362C20.3629 49.5869 20.2728 41.5376 20.2797 33.4884C20.2797 33.0623 20.2797 32.6428 20.2797 32.125H7.12081V50.0326C5.45687 48.6954 4.14653 47.4369 2.62125 46.4799C0.534404 45.1755 -0.0202409 43.5237 0.000558309 41.1837C0.132286 27.9102 0.0629558 14.6368 0.0629558 1.36339C0.0629558 0.937333 0.0629558 0.511273 0.0629558 0H7.04454V26.147H20.2312H20.2382Z" fill="#ED1C24"/>
</svg>
